<svg id="Компонент_51_1" data-name="Компонент 51 – 1" xmlns="http://www.w3.org/2000/svg" width="1080" height="77.555" viewBox="0 0 1080 77.555">
  <g id="Сгруппировать_206" data-name="Сгруппировать 206">
    <path id="Контур_271" data-name="Контур 271" d="M348.4,441.891a7.865,7.865,0,1,0,7.99,7.864A7.754,7.754,0,0,0,348.4,441.891Zm0,14.433a6.57,6.57,0,1,1,6.674-6.569A6.477,6.477,0,0,1,348.4,456.324Z" transform="translate(129.4 -422.64)" fill="#091f7a"/>
    <path id="Контур_272" data-name="Контур 272" d="M387.779,452.311a4.957,4.957,0,0,0,3.948-5.077c0-3.348-2.327-5.348-6.225-5.348h-5.427v15.741h1.316v-5.046H385.5c.149,0,.294,0,.436-.008l4.375,4.976h1.754l-4.561-5.172Zm-6.388-1.031V447.4l3.41,3.878Zm0-5.835v-2.258h4.153c2.22,0,4.867.7,4.867,4.047,0,2.875-1.956,3.8-3.915,4Z" transform="translate(106.965 -422.637)" fill="#091f7a"/>
    <path id="Контур_273" data-name="Контур 273" d="M456.841,443.022a6.1,6.1,0,0,1,4.5,1.649l.343.328.828-.97-.291-.293a7.378,7.378,0,0,0-5.381-2.011,7.8,7.8,0,0,0-8.053,7.9,7.675,7.675,0,0,0,7.78,7.9,7.793,7.793,0,0,0,4.489-1.369v1.306h1.3v-8.137h-1.3v.478l-6.93,5.953a6.335,6.335,0,0,1-4.023-6.13A6.524,6.524,0,0,1,456.841,443.022Zm4.216,8.117v3.3a6.353,6.353,0,0,1-4.489,1.784,6.576,6.576,0,0,1-1.353-.144Z" transform="translate(68.096 -422.547)" fill="#091f7a"/>
    <path id="Контур_274" data-name="Контур 274" d="M491.151,441.73a7.865,7.865,0,1,0,7.99,7.864A7.754,7.754,0,0,0,491.151,441.73Zm0,14.433a6.57,6.57,0,1,1,6.674-6.569A6.476,6.476,0,0,1,491.151,456.163Z" transform="translate(48.653 -422.549)" fill="#091f7a"/>
    <path id="Контур_275" data-name="Контур 275" d="M565.959,441.569a7.865,7.865,0,1,0,7.99,7.864A7.754,7.754,0,0,0,565.959,441.569Zm0,14.433a6.57,6.57,0,1,1,6.674-6.569A6.476,6.476,0,0,1,565.959,456Z" transform="translate(6.337 -422.458)" fill="#091f7a"/>
    <path id="Контур_276" data-name="Контур 276" d="M531.489,443.025a6.125,6.125,0,0,1,4.5,1.641l.342.326.83-.968-.294-.293a7.4,7.4,0,0,0-5.38-2,7.786,7.786,0,0,0-8.053,7.864,7.658,7.658,0,0,0,7.78,7.864,7.82,7.82,0,0,0,4.489-1.363v1.3H537v-8.1h-1.3v.322l-7.029,6.038a6.3,6.3,0,0,1-3.924-6.059A6.508,6.508,0,0,1,531.489,443.025Zm4.216,7.928v3.434a6.368,6.368,0,0,1-4.489,1.775,6.6,6.6,0,0,1-1.468-.167Z" transform="translate(25.871 -422.549)" fill="#091f7a"/>
    <path id="Контур_277" data-name="Контур 277" d="M411.308,443.33h3.172v13.057h-3.172v1.261h7.656v-1.261h-3.172V443.33h3.172v-1.261h-7.656Z" transform="translate(89.296 -422.741)" fill="#091f7a"/>
  </g>
  <path id="Контур_278" data-name="Контур 278" d="M620.729,441.891a7.865,7.865,0,1,0,7.99,7.864A7.754,7.754,0,0,0,620.729,441.891Zm0,14.433a6.57,6.57,0,1,1,6.674-6.569A6.476,6.476,0,0,1,620.729,456.324Z" transform="translate(-24.645 -422.64)" fill="#eaeaea"/>
  <path id="Контур_279" data-name="Контур 279" d="M660.1,452.311a4.957,4.957,0,0,0,3.948-5.077c0-3.348-2.327-5.348-6.225-5.348H652.4v15.741h1.316v-5.046h4.111c.149,0,.294,0,.436-.008l4.375,4.976h1.754l-4.561-5.172Zm-6.388-1.031V447.4l3.41,3.878Zm0-5.835v-2.258h4.153c2.22,0,4.867.7,4.867,4.047,0,2.875-1.956,3.8-3.915,4Z" transform="translate(-47.08 -422.637)" fill="#eaeaea"/>
  <path id="Контур_280" data-name="Контур 280" d="M729.168,443.022a6.1,6.1,0,0,1,4.5,1.649l.343.328.828-.97-.291-.293a7.378,7.378,0,0,0-5.381-2.011,7.8,7.8,0,0,0-8.053,7.9,7.675,7.675,0,0,0,7.78,7.9,7.793,7.793,0,0,0,4.489-1.369v1.306h1.3v-8.137h-1.3v.478l-6.93,5.953a6.336,6.336,0,0,1-4.023-6.13A6.524,6.524,0,0,1,729.168,443.022Zm4.216,8.117v3.3a6.353,6.353,0,0,1-4.489,1.784,6.577,6.577,0,0,1-1.353-.144Z" transform="translate(-85.95 -422.547)" fill="#eaeaea"/>
  <path id="Контур_281" data-name="Контур 281" d="M763.477,441.73a7.865,7.865,0,1,0,7.99,7.864A7.754,7.754,0,0,0,763.477,441.73Zm0,14.433a6.57,6.57,0,1,1,6.674-6.569A6.476,6.476,0,0,1,763.477,456.163Z" transform="translate(-105.392 -422.549)" fill="#eaeaea"/>
  <path id="Контур_282" data-name="Контур 282" d="M838.285,441.569a7.865,7.865,0,1,0,7.99,7.864A7.754,7.754,0,0,0,838.285,441.569Zm0,14.433a6.57,6.57,0,1,1,6.674-6.569A6.477,6.477,0,0,1,838.285,456Z" transform="translate(-147.707 -422.458)" fill="#eaeaea"/>
  <path id="Контур_283" data-name="Контур 283" d="M803.815,443.025a6.125,6.125,0,0,1,4.5,1.641l.342.326.83-.968-.294-.293a7.4,7.4,0,0,0-5.38-2,7.786,7.786,0,0,0-8.053,7.864,7.658,7.658,0,0,0,7.78,7.864,7.819,7.819,0,0,0,4.489-1.363v1.3h1.3v-8.1h-1.3v.322L801,455.653a6.3,6.3,0,0,1-3.924-6.059A6.508,6.508,0,0,1,803.815,443.025Zm4.216,7.928v3.434a6.368,6.368,0,0,1-4.489,1.775,6.6,6.6,0,0,1-1.468-.167Z" transform="translate(-128.174 -422.549)" fill="#eaeaea"/>
  <path id="Контур_284" data-name="Контур 284" d="M683.635,443.33h3.172v13.057h-3.172v1.261h7.656v-1.261h-3.172V443.33h3.172v-1.261h-7.656Z" transform="translate(-64.748 -422.741)" fill="#eaeaea"/>
  <path id="Контур_285" data-name="Контур 285" d="M889.729,441.891a7.865,7.865,0,1,0,7.99,7.864A7.754,7.754,0,0,0,889.729,441.891Zm0,14.433a6.57,6.57,0,1,1,6.674-6.569A6.476,6.476,0,0,1,889.729,456.324Z" transform="translate(-176.807 -422.64)" fill="#eaeaea"/>
  <path id="Контур_286" data-name="Контур 286" d="M929.1,452.311a4.957,4.957,0,0,0,3.948-5.077c0-3.348-2.327-5.348-6.225-5.348H921.4v15.741h1.316v-5.046h4.111c.149,0,.294,0,.436-.008l4.375,4.976h1.754l-4.561-5.172Zm-6.388-1.031V447.4l3.41,3.878Zm0-5.835v-2.258h4.153c2.22,0,4.867.7,4.867,4.047,0,2.875-1.956,3.8-3.915,4Z" transform="translate(-199.243 -422.637)" fill="#eaeaea"/>
  <path id="Контур_287" data-name="Контур 287" d="M998.168,443.022a6.1,6.1,0,0,1,4.5,1.649l.343.328.828-.97-.291-.293a7.378,7.378,0,0,0-5.381-2.011,7.8,7.8,0,0,0-8.053,7.9,7.675,7.675,0,0,0,7.78,7.9,7.793,7.793,0,0,0,4.489-1.369v1.306h1.3v-8.137h-1.3v.478l-6.93,5.953a6.336,6.336,0,0,1-4.023-6.13A6.524,6.524,0,0,1,998.168,443.022Zm4.216,8.117v3.3a6.353,6.353,0,0,1-4.489,1.784,6.577,6.577,0,0,1-1.352-.144Z" transform="translate(-238.113 -422.547)" fill="#eaeaea"/>
  <path id="Контур_288" data-name="Контур 288" d="M1032.477,441.73a7.865,7.865,0,1,0,7.99,7.864A7.754,7.754,0,0,0,1032.477,441.73Zm0,14.433a6.57,6.57,0,1,1,6.674-6.569A6.476,6.476,0,0,1,1032.477,456.163Z" transform="translate(-257.554 -422.549)" fill="#eaeaea"/>
  <path id="Контур_289" data-name="Контур 289" d="M1107.285,441.569a7.865,7.865,0,1,0,7.99,7.864A7.754,7.754,0,0,0,1107.285,441.569Zm0,14.433a6.57,6.57,0,1,1,6.674-6.569A6.477,6.477,0,0,1,1107.285,456Z" transform="translate(-299.871 -422.458)" fill="#eaeaea"/>
  <path id="Контур_290" data-name="Контур 290" d="M1072.815,443.025a6.125,6.125,0,0,1,4.5,1.641l.342.326.83-.968-.294-.293a7.4,7.4,0,0,0-5.38-2,7.786,7.786,0,0,0-8.053,7.864,7.658,7.658,0,0,0,7.78,7.864,7.82,7.82,0,0,0,4.489-1.363v1.3h1.3v-8.1h-1.3v.322L1070,455.653a6.3,6.3,0,0,1-3.924-6.059A6.508,6.508,0,0,1,1072.815,443.025Zm4.216,7.928v3.434a6.367,6.367,0,0,1-4.489,1.775,6.6,6.6,0,0,1-1.468-.167Z" transform="translate(-280.337 -422.549)" fill="#eaeaea"/>
  <path id="Контур_291" data-name="Контур 291" d="M952.634,443.33h3.172v13.057h-3.172v1.261h7.656v-1.261h-3.172V443.33h3.172v-1.261h-7.656Z" transform="translate(-216.91 -422.741)" fill="#eaeaea"/>
  <path id="Контур_292" data-name="Контур 292" d="M1158.729,441.891a7.865,7.865,0,1,0,7.99,7.864A7.754,7.754,0,0,0,1158.729,441.891Zm0,14.433a6.57,6.57,0,1,1,6.674-6.569A6.476,6.476,0,0,1,1158.729,456.324Z" transform="translate(-328.971 -422.64)" fill="#eaeaea"/>
  <path id="Контур_293" data-name="Контур 293" d="M1198.1,452.311a4.957,4.957,0,0,0,3.948-5.077c0-3.348-2.327-5.348-6.225-5.348H1190.4v15.741h1.316v-5.046h4.111c.149,0,.294,0,.436-.008l4.375,4.976h1.754l-4.561-5.172Zm-6.388-1.031V447.4l3.41,3.878Zm0-5.835v-2.258h4.152c2.22,0,4.867.7,4.867,4.047,0,2.875-1.956,3.8-3.915,4Z" transform="translate(-351.405 -422.637)" fill="#ddd"/>
  <path id="Контур_294" data-name="Контур 294" d="M1267.168,443.022a6.1,6.1,0,0,1,4.5,1.649l.343.328.828-.97-.291-.293a7.379,7.379,0,0,0-5.381-2.011,7.8,7.8,0,0,0-8.053,7.9,7.675,7.675,0,0,0,7.78,7.9,7.793,7.793,0,0,0,4.489-1.369v1.306h1.3v-8.137h-1.3v.478l-6.93,5.953a6.335,6.335,0,0,1-4.023-6.13A6.524,6.524,0,0,1,1267.168,443.022Zm4.216,8.117v3.3a6.353,6.353,0,0,1-4.489,1.784,6.575,6.575,0,0,1-1.353-.144Z" transform="translate(-390.274 -422.547)" fill="#eaeaea"/>
  <path id="Контур_295" data-name="Контур 295" d="M1301.477,441.73a7.865,7.865,0,1,0,7.99,7.864A7.754,7.754,0,0,0,1301.477,441.73Zm0,14.433a6.57,6.57,0,1,1,6.674-6.569A6.476,6.476,0,0,1,1301.477,456.163Z" transform="translate(-409.718 -422.549)" fill="#eaeaea"/>
  <path id="Контур_296" data-name="Контур 296" d="M1376.285,441.569a7.865,7.865,0,1,0,7.99,7.864A7.754,7.754,0,0,0,1376.285,441.569Zm0,14.433a6.57,6.57,0,1,1,6.674-6.569A6.477,6.477,0,0,1,1376.285,456Z" transform="translate(-452.034 -422.458)" fill="#eaeaea"/>
  <path id="Контур_297" data-name="Контур 297" d="M1341.815,443.025a6.125,6.125,0,0,1,4.5,1.641l.342.326.83-.968-.294-.293a7.4,7.4,0,0,0-5.38-2,7.786,7.786,0,0,0-8.053,7.864,7.658,7.658,0,0,0,7.78,7.864,7.82,7.82,0,0,0,4.489-1.363v1.3h1.3v-8.1h-1.3v.322L1339,455.653a6.3,6.3,0,0,1-3.924-6.059A6.508,6.508,0,0,1,1341.815,443.025Zm4.216,7.928v3.434a6.368,6.368,0,0,1-4.489,1.775,6.607,6.607,0,0,1-1.468-.167Z" transform="translate(-432.5 -422.549)" fill="#eaeaea"/>
  <path id="Контур_298" data-name="Контур 298" d="M1221.634,443.33h3.172v13.057h-3.172v1.261h7.656v-1.261h-3.172V443.33h3.172v-1.261h-7.656Z" transform="translate(-369.074 -422.741)" fill="#eaeaea"/>
  <path id="Контур_299" data-name="Контур 299" d="M1427.729,441.891a7.865,7.865,0,1,0,7.99,7.864A7.754,7.754,0,0,0,1427.729,441.891Zm0,14.433a6.57,6.57,0,1,1,6.674-6.569A6.476,6.476,0,0,1,1427.729,456.324Z" transform="translate(-481.134 -422.64)" fill="#eaeaea"/>
  <path id="Контур_300" data-name="Контур 300" d="M1467.1,452.311a4.957,4.957,0,0,0,3.948-5.077c0-3.348-2.327-5.348-6.225-5.348H1459.4v15.741h1.316v-5.046h4.111c.149,0,.294,0,.436-.008l4.375,4.976h1.754l-4.561-5.172Zm-6.388-1.031V447.4l3.41,3.878Zm0-5.835v-2.258h4.153c2.22,0,4.867.7,4.867,4.047,0,2.875-1.956,3.8-3.915,4Z" transform="translate(-503.569 -422.637)" fill="#eaeaea"/>
  <path id="Контур_301" data-name="Контур 301" d="M1536.167,443.022a6.1,6.1,0,0,1,4.5,1.649l.343.328.828-.97-.292-.293a7.378,7.378,0,0,0-5.381-2.011,7.8,7.8,0,0,0-8.052,7.9,7.675,7.675,0,0,0,7.78,7.9,7.793,7.793,0,0,0,4.489-1.369v1.306h1.3v-8.137h-1.3v.478l-6.93,5.953a6.335,6.335,0,0,1-4.023-6.13A6.524,6.524,0,0,1,1536.167,443.022Zm4.216,8.117v3.3a6.352,6.352,0,0,1-4.489,1.784,6.578,6.578,0,0,1-1.353-.144Z" transform="translate(-542.438 -422.547)" fill="#eaeaea"/>
  <path id="Контур_302" data-name="Контур 302" d="M1570.477,441.73a7.865,7.865,0,1,0,7.99,7.864A7.754,7.754,0,0,0,1570.477,441.73Zm0,14.433a6.57,6.57,0,1,1,6.674-6.569A6.476,6.476,0,0,1,1570.477,456.163Z" transform="translate(-561.881 -422.549)" fill="#eaeaea"/>
  <path id="Контур_303" data-name="Контур 303" d="M1645.285,441.569a7.865,7.865,0,1,0,7.99,7.864A7.754,7.754,0,0,0,1645.285,441.569Zm0,14.433a6.57,6.57,0,1,1,6.674-6.569A6.477,6.477,0,0,1,1645.285,456Z" transform="translate(-604.196 -422.458)" fill="#eaeaea"/>
  <path id="Контур_304" data-name="Контур 304" d="M1610.815,443.025a6.125,6.125,0,0,1,4.5,1.641l.342.326.83-.968-.294-.293a7.4,7.4,0,0,0-5.38-2,7.786,7.786,0,0,0-8.053,7.864,7.658,7.658,0,0,0,7.78,7.864,7.819,7.819,0,0,0,4.489-1.363v1.3h1.3v-8.1h-1.3v.322L1608,455.653a6.3,6.3,0,0,1-3.924-6.059A6.508,6.508,0,0,1,1610.815,443.025Zm4.216,7.928v3.434a6.368,6.368,0,0,1-4.489,1.775,6.6,6.6,0,0,1-1.467-.167Z" transform="translate(-584.662 -422.549)" fill="#eaeaea"/>
  <path id="Контур_305" data-name="Контур 305" d="M1490.634,443.33h3.172v13.057h-3.172v1.261h7.656v-1.261h-3.172V443.33h3.172v-1.261h-7.656Z" transform="translate(-521.236 -422.741)" fill="#eaeaea"/>
  <path id="Контур_306" data-name="Контур 306" d="M79.729,441.891a7.865,7.865,0,1,0,7.99,7.864A7.754,7.754,0,0,0,79.729,441.891Zm0,14.433a6.57,6.57,0,1,1,6.674-6.569A6.476,6.476,0,0,1,79.729,456.324Z" transform="translate(281.378 -422.64)" fill="#eaeaea"/>
  <path id="Контур_307" data-name="Контур 307" d="M119.1,452.311a4.957,4.957,0,0,0,3.948-5.077c0-3.348-2.327-5.348-6.225-5.348H111.4v15.741h1.316v-5.046h4.111c.149,0,.294,0,.436-.008l4.375,4.976h1.754l-4.561-5.172Zm-6.388-1.031V447.4l3.41,3.878Zm0-5.835v-2.258h4.153c2.22,0,4.867.7,4.867,4.047,0,2.875-1.956,3.8-3.915,4Z" transform="translate(258.942 -422.637)" fill="#eaeaea"/>
  <path id="Контур_308" data-name="Контур 308" d="M188.168,443.022a6.1,6.1,0,0,1,4.5,1.649l.343.328.828-.97-.291-.293a7.378,7.378,0,0,0-5.381-2.011,7.8,7.8,0,0,0-8.053,7.9,7.675,7.675,0,0,0,7.78,7.9,7.793,7.793,0,0,0,4.489-1.369v1.306h1.3v-8.137h-1.3v.478l-6.93,5.953a6.335,6.335,0,0,1-4.023-6.13A6.524,6.524,0,0,1,188.168,443.022Zm4.216,8.117v3.3a6.353,6.353,0,0,1-4.489,1.784,6.577,6.577,0,0,1-1.353-.144Z" transform="translate(220.073 -422.547)" fill="#eaeaea"/>
  <path id="Контур_309" data-name="Контур 309" d="M222.477,441.73a7.865,7.865,0,1,0,7.99,7.864A7.754,7.754,0,0,0,222.477,441.73Zm0,14.433a6.57,6.57,0,1,1,6.674-6.569A6.476,6.476,0,0,1,222.477,456.163Z" transform="translate(200.631 -422.549)" fill="#eaeaea"/>
  <path id="Контур_310" data-name="Контур 310" d="M297.285,441.569a7.865,7.865,0,1,0,7.99,7.864A7.754,7.754,0,0,0,297.285,441.569Zm0,14.433a6.57,6.57,0,1,1,6.674-6.569A6.477,6.477,0,0,1,297.285,456Z" transform="translate(158.316 -422.458)" fill="#eaeaea"/>
  <path id="Контур_311" data-name="Контур 311" d="M262.815,443.025a6.125,6.125,0,0,1,4.5,1.641l.342.326.83-.968-.294-.293a7.4,7.4,0,0,0-5.38-2,7.786,7.786,0,0,0-8.053,7.864,7.658,7.658,0,0,0,7.78,7.864,7.82,7.82,0,0,0,4.489-1.363v1.3h1.3v-8.1h-1.3v.322L260,455.653a6.3,6.3,0,0,1-3.924-6.059A6.508,6.508,0,0,1,262.815,443.025Zm4.216,7.928v3.434a6.368,6.368,0,0,1-4.489,1.775,6.6,6.6,0,0,1-1.468-.167Z" transform="translate(177.849 -422.549)" fill="#eaeaea"/>
  <path id="Контур_312" data-name="Контур 312" d="M142.634,443.33h3.172v13.057h-3.172v1.261h7.656v-1.261h-3.172V443.33h3.172v-1.261h-7.656Z" transform="translate(241.276 -422.741)" fill="#eaeaea"/>
  <path id="Контур_313" data-name="Контур 313" d="M-192.271,441.891a7.754,7.754,0,0,0-7.99,7.864,7.754,7.754,0,0,0,7.99,7.864,7.754,7.754,0,0,0,7.99-7.864A7.754,7.754,0,0,0-192.271,441.891Zm0,14.433a6.476,6.476,0,0,1-6.674-6.569,6.477,6.477,0,0,1,6.674-6.569,6.476,6.476,0,0,1,6.674,6.569A6.476,6.476,0,0,1-192.271,456.324Z" transform="translate(435.238 -422.64)" fill="#ddd"/>
  <path id="Контур_314" data-name="Контур 314" d="M-152.9,452.311a4.957,4.957,0,0,0,3.948-5.077c0-3.348-2.327-5.348-6.225-5.348H-160.6v15.741h1.316v-5.046h4.111c.149,0,.294,0,.436-.008l4.375,4.976h1.754l-4.561-5.172Zm-6.388-1.031V447.4l3.41,3.878Zm0-5.835v-2.258h4.153c2.22,0,4.867.7,4.867,4.047,0,2.875-1.956,3.8-3.915,4Z" transform="translate(412.802 -422.637)" fill="#eaeaea"/>
  <path id="Контур_315" data-name="Контур 315" d="M-83.832,443.022a6.1,6.1,0,0,1,4.5,1.649l.343.328.828-.97-.291-.293a7.378,7.378,0,0,0-5.381-2.011,7.8,7.8,0,0,0-8.053,7.9,7.675,7.675,0,0,0,7.78,7.9,7.793,7.793,0,0,0,4.489-1.369v1.306h1.3v-8.137h-1.3v.478l-6.93,5.953a6.335,6.335,0,0,1-4.023-6.13A6.524,6.524,0,0,1-83.832,443.022Zm4.216,8.117v3.3a6.353,6.353,0,0,1-4.489,1.784,6.577,6.577,0,0,1-1.353-.144Z" transform="translate(373.934 -422.547)" fill="#eaeaea"/>
  <path id="Контур_316" data-name="Контур 316" d="M-49.523,441.73a7.754,7.754,0,0,0-7.99,7.864,7.754,7.754,0,0,0,7.99,7.864,7.754,7.754,0,0,0,7.99-7.864A7.754,7.754,0,0,0-49.523,441.73Zm0,14.433a6.476,6.476,0,0,1-6.674-6.569,6.476,6.476,0,0,1,6.674-6.569,6.476,6.476,0,0,1,6.674,6.569A6.476,6.476,0,0,1-49.523,456.163Z" transform="translate(354.49 -422.549)" fill="#eaeaea"/>
  <path id="Контур_317" data-name="Контур 317" d="M25.285,441.569a7.865,7.865,0,1,0,0,15.728,7.865,7.865,0,1,0,0-15.728Zm0,14.433a6.57,6.57,0,1,1,0-13.137,6.57,6.57,0,1,1,0,13.137Z" transform="translate(312.176 -422.458)" fill="#eaeaea"/>
  <path id="Контур_318" data-name="Контур 318" d="M-9.185,443.025a6.125,6.125,0,0,1,4.5,1.641l.342.326.83-.968-.294-.293a7.4,7.4,0,0,0-5.38-2,7.786,7.786,0,0,0-8.053,7.864,7.658,7.658,0,0,0,7.78,7.864,7.82,7.82,0,0,0,4.489-1.363v1.3h1.3v-8.1h-1.3v.322L-12,455.653a6.3,6.3,0,0,1-3.924-6.059A6.508,6.508,0,0,1-9.185,443.025Zm4.216,7.928v3.434a6.368,6.368,0,0,1-4.489,1.775A6.6,6.6,0,0,1-10.926,456Z" transform="translate(331.709 -422.549)" fill="#eaeaea"/>
  <path id="Контур_319" data-name="Контур 319" d="M-129.366,443.33h3.172v13.057h-3.172v1.261h7.656v-1.261h-3.172V443.33h3.172v-1.261h-7.656Z" transform="translate(395.136 -422.741)" fill="#eaeaea"/>
  <path id="Контур_320" data-name="Контур 320" d="M-464.271,441.891a7.754,7.754,0,0,0-7.99,7.864,7.754,7.754,0,0,0,7.99,7.864,7.754,7.754,0,0,0,7.99-7.864A7.754,7.754,0,0,0-464.271,441.891Zm0,14.433a6.476,6.476,0,0,1-6.674-6.569,6.476,6.476,0,0,1,6.674-6.569,6.477,6.477,0,0,1,6.674,6.569A6.476,6.476,0,0,1-464.271,456.324Z" transform="translate(589.098 -422.64)" fill="#eaeaea"/>
  <path id="Контур_321" data-name="Контур 321" d="M-424.9,452.311a4.957,4.957,0,0,0,3.948-5.077c0-3.348-2.327-5.348-6.225-5.348H-432.6v15.741h1.316v-5.046h4.111c.149,0,.294,0,.436-.008l4.375,4.976h1.754l-4.561-5.172Zm-6.388-1.031V447.4l3.41,3.878Zm0-5.835v-2.258h4.153c2.22,0,4.867.7,4.867,4.047,0,2.875-1.956,3.8-3.915,4Z" transform="translate(566.662 -422.637)" fill="#eaeaea"/>
  <path id="Контур_322" data-name="Контур 322" d="M-355.832,443.022a6.1,6.1,0,0,1,4.5,1.649l.343.328.828-.97-.291-.293a7.378,7.378,0,0,0-5.381-2.011,7.8,7.8,0,0,0-8.053,7.9,7.675,7.675,0,0,0,7.78,7.9,7.793,7.793,0,0,0,4.489-1.369v1.306h1.3v-8.137h-1.3v.478l-6.93,5.953a6.335,6.335,0,0,1-4.023-6.13A6.524,6.524,0,0,1-355.832,443.022Zm4.216,8.117v3.3a6.353,6.353,0,0,1-4.489,1.784,6.576,6.576,0,0,1-1.353-.144Z" transform="translate(527.794 -422.547)" fill="#eaeaea"/>
  <path id="Контур_323" data-name="Контур 323" d="M-321.523,441.73a7.754,7.754,0,0,0-7.99,7.864,7.754,7.754,0,0,0,7.99,7.864,7.754,7.754,0,0,0,7.99-7.864A7.754,7.754,0,0,0-321.523,441.73Zm0,14.433a6.476,6.476,0,0,1-6.674-6.569,6.476,6.476,0,0,1,6.674-6.569,6.476,6.476,0,0,1,6.674,6.569A6.476,6.476,0,0,1-321.523,456.163Z" transform="translate(508.351 -422.549)" fill="#eaeaea"/>
  <path id="Контур_324" data-name="Контур 324" d="M-246.715,441.569a7.754,7.754,0,0,0-7.99,7.864,7.754,7.754,0,0,0,7.99,7.864,7.754,7.754,0,0,0,7.99-7.864A7.754,7.754,0,0,0-246.715,441.569Zm0,14.433a6.477,6.477,0,0,1-6.674-6.569,6.477,6.477,0,0,1,6.674-6.569,6.477,6.477,0,0,1,6.674,6.569A6.477,6.477,0,0,1-246.715,456Z" transform="translate(466.035 -422.458)" fill="#eaeaea"/>
  <path id="Контур_325" data-name="Контур 325" d="M-281.185,443.025a6.125,6.125,0,0,1,4.5,1.641l.342.326.83-.968-.294-.293a7.4,7.4,0,0,0-5.38-2,7.786,7.786,0,0,0-8.053,7.864,7.658,7.658,0,0,0,7.78,7.864,7.82,7.82,0,0,0,4.489-1.363v1.3h1.3v-8.1h-1.3v.322L-284,455.653a6.3,6.3,0,0,1-3.924-6.059A6.508,6.508,0,0,1-281.185,443.025Zm4.216,7.928v3.434a6.368,6.368,0,0,1-4.489,1.775,6.6,6.6,0,0,1-1.468-.167Z" transform="translate(485.57 -422.549)" fill="#eaeaea"/>
  <path id="Контур_326" data-name="Контур 326" d="M-401.365,443.33h3.172v13.057h-3.172v1.261h7.656v-1.261h-3.172V443.33h3.172v-1.261h-7.656Z" transform="translate(548.995 -422.741)" fill="#eaeaea"/>
  <path id="Контур_327" data-name="Контур 327" d="M437.729,397.891a7.865,7.865,0,1,0,7.99,7.864A7.754,7.754,0,0,0,437.729,397.891Zm0,14.433a6.57,6.57,0,1,1,6.674-6.569A6.476,6.476,0,0,1,437.729,412.324Z" transform="translate(78.872 -397.751)" fill="#eaeaea"/>
  <path id="Контур_328" data-name="Контур 328" d="M477.1,408.311a4.957,4.957,0,0,0,3.948-5.077c0-3.348-2.327-5.348-6.225-5.348H469.4v15.741h1.316v-5.046h4.111c.149,0,.294,0,.436-.008l4.375,4.976h1.754l-4.561-5.172Zm-6.388-1.031V403.4l3.41,3.878Zm0-5.835v-2.258h4.153c2.22,0,4.867.7,4.867,4.047,0,2.875-1.956,3.8-3.915,4Z" transform="translate(56.436 -397.748)" fill="#eaeaea"/>
  <path id="Контур_329" data-name="Контур 329" d="M546.168,399.022a6.1,6.1,0,0,1,4.5,1.649l.343.328.828-.97-.291-.293a7.379,7.379,0,0,0-5.381-2.011,7.8,7.8,0,0,0-8.053,7.9,7.675,7.675,0,0,0,7.78,7.9,7.793,7.793,0,0,0,4.489-1.369v1.306h1.3v-8.137h-1.3v.478l-6.93,5.953a6.335,6.335,0,0,1-4.023-6.13A6.524,6.524,0,0,1,546.168,399.022Zm4.216,8.117v3.3a6.353,6.353,0,0,1-4.489,1.784,6.576,6.576,0,0,1-1.352-.144Z" transform="translate(17.568 -397.657)" fill="#eaeaea"/>
  <path id="Контур_330" data-name="Контур 330" d="M580.477,397.73a7.865,7.865,0,1,0,7.99,7.864A7.754,7.754,0,0,0,580.477,397.73Zm0,14.433a6.57,6.57,0,1,1,6.674-6.568A6.476,6.476,0,0,1,580.477,412.163Z" transform="translate(-1.876 -397.661)" fill="#eaeaea"/>
  <path id="Контур_331" data-name="Контур 331" d="M655.285,397.569a7.865,7.865,0,1,0,7.99,7.864A7.754,7.754,0,0,0,655.285,397.569Zm0,14.433a6.57,6.57,0,1,1,6.674-6.569A6.477,6.477,0,0,1,655.285,412Z" transform="translate(-44.192 -397.569)" fill="#eaeaea"/>
  <path id="Контур_332" data-name="Контур 332" d="M620.815,399.025a6.125,6.125,0,0,1,4.5,1.641l.342.326.83-.968-.294-.293a7.4,7.4,0,0,0-5.38-2,7.786,7.786,0,0,0-8.053,7.864,7.658,7.658,0,0,0,7.78,7.864,7.82,7.82,0,0,0,4.489-1.363v1.3h1.3v-8.1h-1.3v.322L618,411.653a6.3,6.3,0,0,1-3.924-6.059A6.508,6.508,0,0,1,620.815,399.025Zm4.216,7.928v3.434a6.368,6.368,0,0,1-4.489,1.775,6.608,6.608,0,0,1-1.468-.167Z" transform="translate(-24.658 -397.661)" fill="#eaeaea"/>
  <path id="Контур_333" data-name="Контур 333" d="M500.634,399.33h3.172v13.057h-3.172v1.261h7.656v-1.261h-3.172V399.33h3.172v-1.261h-7.656Z" transform="translate(38.768 -397.851)" fill="#eaeaea"/>
  <path id="Контур_334" data-name="Контур 334" d="M706.729,397.891a7.865,7.865,0,1,0,7.99,7.864A7.754,7.754,0,0,0,706.729,397.891Zm0,14.433a6.57,6.57,0,1,1,6.674-6.569A6.476,6.476,0,0,1,706.729,412.324Z" transform="translate(-73.292 -397.751)" fill="#eaeaea"/>
  <path id="Контур_335" data-name="Контур 335" d="M746.1,408.311a4.957,4.957,0,0,0,3.948-5.077c0-3.348-2.327-5.348-6.225-5.348H738.4v15.741h1.316v-5.046h4.111c.149,0,.294,0,.436-.008l4.375,4.976h1.754l-4.561-5.172Zm-6.388-1.031V403.4l3.41,3.878Zm0-5.835v-2.258h4.153c2.22,0,4.867.7,4.867,4.047,0,2.875-1.956,3.8-3.915,4Z" transform="translate(-95.727 -397.748)" fill="#eaeaea"/>
  <path id="Контур_336" data-name="Контур 336" d="M815.168,399.022a6.1,6.1,0,0,1,4.5,1.649l.343.328.828-.97-.292-.293a7.378,7.378,0,0,0-5.381-2.011,7.8,7.8,0,0,0-8.053,7.9,7.675,7.675,0,0,0,7.78,7.9,7.793,7.793,0,0,0,4.489-1.369v1.306h1.3v-8.137h-1.3v.478l-6.93,5.953a6.335,6.335,0,0,1-4.023-6.13A6.524,6.524,0,0,1,815.168,399.022Zm4.216,8.117v3.3a6.353,6.353,0,0,1-4.489,1.784,6.577,6.577,0,0,1-1.352-.144Z" transform="translate(-134.596 -397.657)" fill="#ddd"/>
  <path id="Контур_337" data-name="Контур 337" d="M849.477,397.73a7.865,7.865,0,1,0,7.99,7.864A7.754,7.754,0,0,0,849.477,397.73Zm0,14.433a6.57,6.57,0,1,1,6.674-6.568A6.476,6.476,0,0,1,849.477,412.163Z" transform="translate(-154.039 -397.661)" fill="#eaeaea"/>
  <path id="Контур_338" data-name="Контур 338" d="M924.285,397.569a7.865,7.865,0,1,0,7.99,7.864A7.754,7.754,0,0,0,924.285,397.569Zm0,14.433a6.57,6.57,0,1,1,6.674-6.569A6.477,6.477,0,0,1,924.285,412Z" transform="translate(-196.354 -397.569)" fill="#eaeaea"/>
  <path id="Контур_339" data-name="Контур 339" d="M889.815,399.025a6.125,6.125,0,0,1,4.5,1.641l.342.326.83-.968-.294-.293a7.4,7.4,0,0,0-5.38-2,7.786,7.786,0,0,0-8.053,7.864,7.658,7.658,0,0,0,7.78,7.864,7.82,7.82,0,0,0,4.489-1.363v1.3h1.3v-8.1h-1.3v.322L887,411.653a6.3,6.3,0,0,1-3.924-6.059A6.508,6.508,0,0,1,889.815,399.025Zm4.216,7.928v3.434a6.368,6.368,0,0,1-4.489,1.775,6.608,6.608,0,0,1-1.468-.167Z" transform="translate(-176.821 -397.661)" fill="#eaeaea"/>
  <path id="Контур_340" data-name="Контур 340" d="M769.635,399.33h3.172v13.057h-3.172v1.261h7.656v-1.261h-3.172V399.33h3.172v-1.261h-7.656Z" transform="translate(-113.394 -397.851)" fill="#eaeaea"/>
  <path id="Контур_341" data-name="Контур 341" d="M975.729,397.891a7.865,7.865,0,1,0,7.99,7.864A7.754,7.754,0,0,0,975.729,397.891Zm0,14.433a6.57,6.57,0,1,1,6.674-6.569A6.476,6.476,0,0,1,975.729,412.324Z" transform="translate(-225.454 -397.751)" fill="#eaeaea"/>
  <path id="Контур_342" data-name="Контур 342" d="M1015.1,408.311a4.957,4.957,0,0,0,3.948-5.077c0-3.348-2.327-5.348-6.225-5.348H1007.4v15.741h1.316v-5.046h4.111c.149,0,.294,0,.436-.008l4.375,4.976h1.754l-4.561-5.172Zm-6.388-1.031V403.4l3.41,3.878Zm0-5.835v-2.258h4.153c2.22,0,4.867.7,4.867,4.047,0,2.875-1.956,3.8-3.915,4Z" transform="translate(-247.889 -397.748)" fill="#eaeaea"/>
  <path id="Контур_343" data-name="Контур 343" d="M1084.167,399.022a6.1,6.1,0,0,1,4.5,1.649l.343.328.828-.97-.292-.293a7.378,7.378,0,0,0-5.38-2.011,7.8,7.8,0,0,0-8.053,7.9,7.675,7.675,0,0,0,7.78,7.9,7.793,7.793,0,0,0,4.489-1.369v1.306h1.3v-8.137h-1.3v.478l-6.93,5.953a6.335,6.335,0,0,1-4.023-6.13A6.524,6.524,0,0,1,1084.167,399.022Zm4.216,8.117v3.3a6.352,6.352,0,0,1-4.489,1.784,6.578,6.578,0,0,1-1.353-.144Z" transform="translate(-286.758 -397.657)" fill="#eaeaea"/>
  <path id="Контур_344" data-name="Контур 344" d="M1118.477,397.73a7.865,7.865,0,1,0,7.99,7.864A7.754,7.754,0,0,0,1118.477,397.73Zm0,14.433a6.57,6.57,0,1,1,6.674-6.568A6.476,6.476,0,0,1,1118.477,412.163Z" transform="translate(-306.202 -397.661)" fill="#eaeaea"/>
  <path id="Контур_345" data-name="Контур 345" d="M1193.285,397.569a7.865,7.865,0,1,0,7.99,7.864A7.754,7.754,0,0,0,1193.285,397.569Zm0,14.433a6.57,6.57,0,1,1,6.674-6.569A6.477,6.477,0,0,1,1193.285,412Z" transform="translate(-348.517 -397.569)" fill="#eaeaea"/>
  <path id="Контур_346" data-name="Контур 346" d="M1158.815,399.025a6.125,6.125,0,0,1,4.5,1.641l.342.326.83-.968-.294-.293a7.4,7.4,0,0,0-5.38-2,7.786,7.786,0,0,0-8.053,7.864,7.658,7.658,0,0,0,7.78,7.864,7.819,7.819,0,0,0,4.489-1.363v1.3h1.3v-8.1h-1.3v.322L1156,411.653a6.3,6.3,0,0,1-3.924-6.059A6.508,6.508,0,0,1,1158.815,399.025Zm4.216,7.928v3.434a6.368,6.368,0,0,1-4.489,1.775,6.605,6.605,0,0,1-1.467-.167Z" transform="translate(-328.983 -397.661)" fill="#eaeaea"/>
  <path id="Контур_347" data-name="Контур 347" d="M1038.635,399.33h3.172v13.057h-3.172v1.261h7.656v-1.261h-3.172V399.33h3.172v-1.261h-7.656Z" transform="translate(-265.557 -397.851)" fill="#eaeaea"/>
  <path id="Контур_348" data-name="Контур 348" d="M-106.271,397.891a7.754,7.754,0,0,0-7.99,7.864,7.754,7.754,0,0,0,7.99,7.864,7.754,7.754,0,0,0,7.99-7.864A7.754,7.754,0,0,0-106.271,397.891Zm0,14.433a6.476,6.476,0,0,1-6.674-6.569,6.477,6.477,0,0,1,6.674-6.569,6.477,6.477,0,0,1,6.674,6.569A6.476,6.476,0,0,1-106.271,412.324Z" transform="translate(386.592 -397.751)" fill="#eaeaea"/>
  <path id="Контур_349" data-name="Контур 349" d="M-66.9,408.311a4.957,4.957,0,0,0,3.948-5.077c0-3.348-2.327-5.348-6.225-5.348H-74.6v15.741h1.316v-5.046h4.111c.149,0,.294,0,.436-.008l4.375,4.976h1.754l-4.561-5.172Zm-6.388-1.031V403.4l3.41,3.878Zm0-5.835v-2.258h4.153c2.22,0,4.867.7,4.867,4.047,0,2.875-1.956,3.8-3.915,4Z" transform="translate(364.155 -397.748)" fill="#eaeaea"/>
  <path id="Контур_350" data-name="Контур 350" d="M2.168,399.022a6.1,6.1,0,0,1,4.5,1.649l.343.328.828-.97-.291-.293a7.378,7.378,0,0,0-5.381-2.011,7.8,7.8,0,0,0-8.053,7.9,7.675,7.675,0,0,0,7.78,7.9,7.793,7.793,0,0,0,4.489-1.369v1.306h1.3v-8.137h-1.3v.478l-6.93,5.953a6.335,6.335,0,0,1-4.023-6.13A6.524,6.524,0,0,1,2.168,399.022Zm4.216,8.117v3.3a6.353,6.353,0,0,1-4.489,1.784,6.577,6.577,0,0,1-1.353-.144Z" transform="translate(325.287 -397.657)" fill="#eaeaea"/>
  <path id="Контур_351" data-name="Контур 351" d="M36.477,397.73a7.865,7.865,0,1,0,0,15.728,7.865,7.865,0,1,0,0-15.728Zm0,14.433a6.57,6.57,0,1,1,0-13.137,6.57,6.57,0,1,1,0,13.137Z" transform="translate(305.844 -397.661)" fill="#eaeaea"/>
  <path id="Контур_352" data-name="Контур 352" d="M111.285,397.569a7.865,7.865,0,1,0,7.99,7.864A7.754,7.754,0,0,0,111.285,397.569Zm0,14.433a6.57,6.57,0,1,1,6.674-6.569A6.477,6.477,0,0,1,111.285,412Z" transform="translate(263.529 -397.569)" fill="#eaeaea"/>
  <path id="Контур_353" data-name="Контур 353" d="M76.815,399.025a6.125,6.125,0,0,1,4.5,1.641l.342.326.83-.968-.294-.293a7.4,7.4,0,0,0-5.38-2,7.786,7.786,0,0,0-8.053,7.864,7.658,7.658,0,0,0,7.78,7.864,7.819,7.819,0,0,0,4.489-1.363v1.3h1.3v-8.1h-1.3v.322L74,411.653a6.3,6.3,0,0,1-3.924-6.059A6.508,6.508,0,0,1,76.815,399.025Zm4.216,7.928v3.434a6.368,6.368,0,0,1-4.489,1.775A6.608,6.608,0,0,1,75.074,412Z" transform="translate(283.062 -397.661)" fill="#eaeaea"/>
  <path id="Контур_354" data-name="Контур 354" d="M-43.366,399.33h3.172v13.057h-3.172v1.261h7.656v-1.261h-3.172V399.33h3.172v-1.261h-7.656Z" transform="translate(346.488 -397.851)" fill="#eaeaea"/>
  <path id="Контур_355" data-name="Контур 355" d="M-733.271,441.891a7.754,7.754,0,0,0-7.99,7.864,7.754,7.754,0,0,0,7.99,7.864,7.754,7.754,0,0,0,7.99-7.864A7.754,7.754,0,0,0-733.271,441.891Zm0,14.433a6.476,6.476,0,0,1-6.674-6.569,6.476,6.476,0,0,1,6.674-6.569,6.476,6.476,0,0,1,6.674,6.569A6.476,6.476,0,0,1-733.271,456.324Z" transform="translate(741.261 -422.64)" fill="#eaeaea"/>
  <path id="Контур_356" data-name="Контур 356" d="M-693.9,452.311a4.957,4.957,0,0,0,3.948-5.077c0-3.348-2.327-5.348-6.225-5.348H-701.6v15.741h1.316v-5.046h4.111c.149,0,.294,0,.436-.008l4.375,4.976h1.754l-4.561-5.172Zm-6.388-1.031V447.4l3.41,3.878Zm0-5.835v-2.258h4.153c2.22,0,4.867.7,4.867,4.047,0,2.875-1.956,3.8-3.915,4Z" transform="translate(718.826 -422.637)" fill="#eaeaea"/>
  <path id="Контур_357" data-name="Контур 357" d="M-624.832,443.022a6.1,6.1,0,0,1,4.5,1.649l.343.328.828-.97-.291-.293a7.378,7.378,0,0,0-5.381-2.011,7.8,7.8,0,0,0-8.053,7.9,7.675,7.675,0,0,0,7.78,7.9,7.793,7.793,0,0,0,4.489-1.369v1.306h1.3v-8.137h-1.3v.478l-6.93,5.953a6.336,6.336,0,0,1-4.023-6.13A6.524,6.524,0,0,1-624.832,443.022Zm4.216,8.117v3.3a6.353,6.353,0,0,1-4.489,1.784,6.577,6.577,0,0,1-1.353-.144Z" transform="translate(679.957 -422.547)" fill="#eaeaea"/>
  <path id="Контур_358" data-name="Контур 358" d="M-590.523,441.73a7.754,7.754,0,0,0-7.99,7.864,7.754,7.754,0,0,0,7.99,7.864,7.754,7.754,0,0,0,7.99-7.864A7.754,7.754,0,0,0-590.523,441.73Zm0,14.433a6.476,6.476,0,0,1-6.674-6.569,6.476,6.476,0,0,1,6.674-6.569,6.476,6.476,0,0,1,6.674,6.569A6.476,6.476,0,0,1-590.523,456.163Z" transform="translate(660.514 -422.549)" fill="#eaeaea"/>
  <path id="Контур_359" data-name="Контур 359" d="M-515.715,441.569a7.754,7.754,0,0,0-7.99,7.864,7.754,7.754,0,0,0,7.99,7.864,7.754,7.754,0,0,0,7.99-7.864A7.754,7.754,0,0,0-515.715,441.569Zm0,14.433a6.477,6.477,0,0,1-6.674-6.569,6.477,6.477,0,0,1,6.674-6.569,6.477,6.477,0,0,1,6.674,6.569A6.477,6.477,0,0,1-515.715,456Z" transform="translate(618.198 -422.458)" fill="#eaeaea"/>
  <path id="Контур_360" data-name="Контур 360" d="M-550.185,443.025a6.125,6.125,0,0,1,4.5,1.641l.342.326.83-.968-.294-.293a7.4,7.4,0,0,0-5.38-2,7.786,7.786,0,0,0-8.053,7.864,7.658,7.658,0,0,0,7.78,7.864,7.819,7.819,0,0,0,4.489-1.363v1.3h1.3v-8.1h-1.3v.322L-553,455.653a6.3,6.3,0,0,1-3.924-6.059A6.508,6.508,0,0,1-550.185,443.025Zm4.216,7.928v3.434a6.368,6.368,0,0,1-4.489,1.775,6.6,6.6,0,0,1-1.468-.167Z" transform="translate(637.733 -422.549)" fill="#eaeaea"/>
  <path id="Контур_361" data-name="Контур 361" d="M-670.365,443.33h3.172v13.057h-3.172v1.261h7.656v-1.261h-3.172V443.33h3.172v-1.261h-7.656Z" transform="translate(701.158 -422.741)" fill="#eaeaea"/>
  <path id="Контур_362" data-name="Контур 362" d="M-647.271,397.891a7.754,7.754,0,0,0-7.99,7.864,7.754,7.754,0,0,0,7.99,7.864,7.754,7.754,0,0,0,7.99-7.864A7.754,7.754,0,0,0-647.271,397.891Zm0,14.433a6.476,6.476,0,0,1-6.674-6.569,6.477,6.477,0,0,1,6.674-6.569,6.476,6.476,0,0,1,6.674,6.569A6.476,6.476,0,0,1-647.271,412.324Z" transform="translate(692.614 -397.751)" fill="#eaeaea"/>
  <path id="Контур_363" data-name="Контур 363" d="M-607.9,408.311a4.957,4.957,0,0,0,3.948-5.077c0-3.348-2.327-5.348-6.225-5.348H-615.6v15.741h1.316v-5.046h4.111c.149,0,.294,0,.436-.008l4.375,4.976h1.754l-4.561-5.172Zm-6.388-1.031V403.4l3.41,3.878Zm0-5.835v-2.258h4.153c2.22,0,4.867.7,4.867,4.047,0,2.875-1.956,3.8-3.915,4Z" transform="translate(670.18 -397.748)" fill="#eaeaea"/>
  <path id="Контур_364" data-name="Контур 364" d="M-538.832,399.022a6.1,6.1,0,0,1,4.5,1.649l.343.328.828-.97-.291-.293a7.379,7.379,0,0,0-5.381-2.011,7.8,7.8,0,0,0-8.053,7.9,7.675,7.675,0,0,0,7.78,7.9,7.793,7.793,0,0,0,4.489-1.369v1.306h1.3v-8.137h-1.3v.478l-6.93,5.953a6.335,6.335,0,0,1-4.023-6.13A6.524,6.524,0,0,1-538.832,399.022Zm4.216,8.117v3.3a6.353,6.353,0,0,1-4.489,1.784,6.577,6.577,0,0,1-1.353-.144Z" transform="translate(631.311 -397.657)" fill="#eaeaea"/>
  <path id="Контур_365" data-name="Контур 365" d="M-504.523,397.73a7.754,7.754,0,0,0-7.99,7.864,7.754,7.754,0,0,0,7.99,7.864,7.754,7.754,0,0,0,7.99-7.864A7.754,7.754,0,0,0-504.523,397.73Zm0,14.433a6.476,6.476,0,0,1-6.674-6.568,6.476,6.476,0,0,1,6.674-6.569,6.476,6.476,0,0,1,6.674,6.569A6.476,6.476,0,0,1-504.523,412.163Z" transform="translate(611.867 -397.661)" fill="#eaeaea"/>
  <path id="Контур_366" data-name="Контур 366" d="M-429.715,397.569a7.754,7.754,0,0,0-7.99,7.864,7.754,7.754,0,0,0,7.99,7.864,7.754,7.754,0,0,0,7.99-7.864A7.754,7.754,0,0,0-429.715,397.569Zm0,14.433a6.477,6.477,0,0,1-6.674-6.569,6.477,6.477,0,0,1,6.674-6.569,6.477,6.477,0,0,1,6.674,6.569A6.477,6.477,0,0,1-429.715,412Z" transform="translate(569.551 -397.569)" fill="#ddd"/>
  <path id="Контур_367" data-name="Контур 367" d="M-464.185,399.025a6.125,6.125,0,0,1,4.5,1.641l.342.326.83-.968-.294-.293a7.4,7.4,0,0,0-5.38-2,7.786,7.786,0,0,0-8.053,7.864,7.658,7.658,0,0,0,7.78,7.864,7.819,7.819,0,0,0,4.489-1.363v1.3h1.3v-8.1h-1.3v.322L-467,411.653a6.3,6.3,0,0,1-3.924-6.059A6.508,6.508,0,0,1-464.185,399.025Zm4.216,7.928v3.434a6.368,6.368,0,0,1-4.489,1.775,6.608,6.608,0,0,1-1.468-.167Z" transform="translate(589.085 -397.661)" fill="#eaeaea"/>
  <path id="Контур_368" data-name="Контур 368" d="M-584.366,399.33h3.172v13.057h-3.172v1.261h7.656v-1.261h-3.172V399.33h3.172v-1.261h-7.656Z" transform="translate(652.511 -397.851)" fill="#eaeaea"/>
  <path id="Контур_369" data-name="Контур 369" d="M228.729,490.891a7.865,7.865,0,1,0,7.99,7.864A7.754,7.754,0,0,0,228.729,490.891Zm0,14.433a6.57,6.57,0,1,1,6.674-6.569A6.476,6.476,0,0,1,228.729,505.324Z" transform="translate(197.095 -450.357)" fill="#eaeaea"/>
  <path id="Контур_370" data-name="Контур 370" d="M268.1,501.311a4.957,4.957,0,0,0,3.948-5.077c0-3.348-2.327-5.348-6.225-5.348H260.4v15.741h1.316v-5.046h4.111c.149,0,.294,0,.436-.008l4.375,4.976h1.754l-4.561-5.172Zm-6.388-1.031V496.4l3.41,3.878Zm0-5.835v-2.258h4.153c2.22,0,4.867.7,4.867,4.047,0,2.875-1.956,3.8-3.915,4Z" transform="translate(174.659 -450.355)" fill="#eaeaea"/>
  <path id="Контур_371" data-name="Контур 371" d="M337.168,492.022a6.1,6.1,0,0,1,4.5,1.649l.343.328.828-.97-.291-.293a7.378,7.378,0,0,0-5.381-2.011,7.8,7.8,0,0,0-8.053,7.9,7.675,7.675,0,0,0,7.78,7.9,7.793,7.793,0,0,0,4.489-1.37v1.306h1.3v-8.137h-1.3v.478l-6.93,5.953a6.336,6.336,0,0,1-4.023-6.13A6.524,6.524,0,0,1,337.168,492.022Zm4.216,8.117v3.3a6.353,6.353,0,0,1-4.489,1.784,6.575,6.575,0,0,1-1.353-.144Z" transform="translate(135.79 -450.263)" fill="#eaeaea"/>
  <path id="Контур_372" data-name="Контур 372" d="M371.477,490.73a7.865,7.865,0,1,0,7.99,7.864A7.754,7.754,0,0,0,371.477,490.73Zm0,14.433a6.57,6.57,0,1,1,6.674-6.568A6.476,6.476,0,0,1,371.477,505.163Z" transform="translate(116.347 -450.265)" fill="#eaeaea"/>
  <path id="Контур_373" data-name="Контур 373" d="M446.285,490.569a7.865,7.865,0,1,0,7.99,7.864A7.754,7.754,0,0,0,446.285,490.569Zm0,14.433a6.57,6.57,0,1,1,6.674-6.568A6.477,6.477,0,0,1,446.285,505Z" transform="translate(74.032 -450.174)" fill="#eaeaea"/>
  <path id="Контур_374" data-name="Контур 374" d="M411.815,492.025a6.124,6.124,0,0,1,4.5,1.641l.342.326.83-.968-.294-.293a7.4,7.4,0,0,0-5.38-2,7.786,7.786,0,0,0-8.053,7.864,7.658,7.658,0,0,0,7.78,7.864,7.819,7.819,0,0,0,4.489-1.363v1.3h1.3v-8.1h-1.3v.322L409,504.653a6.3,6.3,0,0,1-3.924-6.059A6.508,6.508,0,0,1,411.815,492.025Zm4.216,7.928v3.434a6.368,6.368,0,0,1-4.489,1.775,6.605,6.605,0,0,1-1.468-.167Z" transform="translate(93.567 -450.265)" fill="#eaeaea"/>
  <path id="Контур_375" data-name="Контур 375" d="M291.634,492.33h3.172v13.057h-3.172v1.261h7.656v-1.261h-3.172V492.33h3.172v-1.261h-7.656Z" transform="translate(156.991 -450.459)" fill="#eaeaea"/>
  <path id="Контур_376" data-name="Контур 376" d="M497.729,490.891a7.865,7.865,0,1,0,7.99,7.864A7.754,7.754,0,0,0,497.729,490.891Zm0,14.433a6.57,6.57,0,1,1,6.674-6.569A6.476,6.476,0,0,1,497.729,505.324Z" transform="translate(44.932 -450.357)" fill="#eaeaea"/>
  <path id="Контур_377" data-name="Контур 377" d="M537.1,501.311a4.957,4.957,0,0,0,3.948-5.077c0-3.348-2.327-5.348-6.225-5.348H529.4v15.741h1.316v-5.046h4.111c.149,0,.294,0,.436-.008l4.375,4.976h1.754l-4.561-5.172Zm-6.388-1.031V496.4l3.41,3.878Zm0-5.835v-2.258h4.153c2.22,0,4.867.7,4.867,4.047,0,2.875-1.956,3.8-3.915,4Z" transform="translate(22.497 -450.355)" fill="#eaeaea"/>
  <path id="Контур_378" data-name="Контур 378" d="M606.168,492.022a6.1,6.1,0,0,1,4.5,1.649l.343.328.828-.97-.291-.293a7.379,7.379,0,0,0-5.381-2.011,7.8,7.8,0,0,0-8.053,7.9,7.675,7.675,0,0,0,7.78,7.9,7.793,7.793,0,0,0,4.489-1.37v1.306h1.3v-8.137h-1.3v.478l-6.93,5.953a6.335,6.335,0,0,1-4.023-6.13A6.524,6.524,0,0,1,606.168,492.022Zm4.216,8.117v3.3a6.352,6.352,0,0,1-4.489,1.784,6.576,6.576,0,0,1-1.353-.144Z" transform="translate(-16.373 -450.263)" fill="#eaeaea"/>
  <path id="Контур_379" data-name="Контур 379" d="M640.477,490.73a7.865,7.865,0,1,0,7.99,7.864A7.754,7.754,0,0,0,640.477,490.73Zm0,14.433a6.57,6.57,0,1,1,6.674-6.568A6.476,6.476,0,0,1,640.477,505.163Z" transform="translate(-35.816 -450.265)" fill="#eaeaea"/>
  <path id="Контур_380" data-name="Контур 380" d="M715.285,490.569a7.865,7.865,0,1,0,7.99,7.864A7.754,7.754,0,0,0,715.285,490.569Zm0,14.433a6.57,6.57,0,1,1,6.674-6.568A6.477,6.477,0,0,1,715.285,505Z" transform="translate(-78.131 -450.174)" fill="#eaeaea"/>
  <path id="Контур_381" data-name="Контур 381" d="M680.815,492.025a6.125,6.125,0,0,1,4.5,1.641l.342.326.83-.968-.294-.293a7.4,7.4,0,0,0-5.38-2,7.786,7.786,0,0,0-8.053,7.864,7.658,7.658,0,0,0,7.78,7.864,7.819,7.819,0,0,0,4.489-1.363v1.3h1.3v-8.1h-1.3v.322L678,504.653a6.3,6.3,0,0,1-3.924-6.059A6.508,6.508,0,0,1,680.815,492.025Zm4.216,7.928v3.434a6.368,6.368,0,0,1-4.489,1.775,6.605,6.605,0,0,1-1.468-.167Z" transform="translate(-58.597 -450.265)" fill="#eaeaea"/>
  <path id="Контур_382" data-name="Контур 382" d="M560.634,492.33h3.172v13.057h-3.172v1.261h7.656v-1.261h-3.172V492.33h3.172v-1.261h-7.656Z" transform="translate(4.829 -450.459)" fill="#eaeaea"/>
  <path id="Контур_383" data-name="Контур 383" d="M766.729,490.891a7.865,7.865,0,1,0,7.99,7.864A7.754,7.754,0,0,0,766.729,490.891Zm0,14.433a6.57,6.57,0,1,1,6.674-6.569A6.476,6.476,0,0,1,766.729,505.324Z" transform="translate(-107.231 -450.357)" fill="#eaeaea"/>
  <path id="Контур_384" data-name="Контур 384" d="M806.1,501.311a4.957,4.957,0,0,0,3.948-5.077c0-3.348-2.327-5.348-6.225-5.348H798.4v15.741h1.316v-5.046h4.111c.149,0,.294,0,.436-.008l4.375,4.976h1.754l-4.561-5.172Zm-6.388-1.031V496.4l3.41,3.878Zm0-5.835v-2.258h4.153c2.22,0,4.867.7,4.867,4.047,0,2.875-1.956,3.8-3.915,4Z" transform="translate(-129.666 -450.355)" fill="#eaeaea"/>
  <path id="Контур_385" data-name="Контур 385" d="M875.168,492.022a6.1,6.1,0,0,1,4.5,1.649l.343.328.828-.97-.291-.293a7.379,7.379,0,0,0-5.381-2.011,7.8,7.8,0,0,0-8.053,7.9,7.675,7.675,0,0,0,7.78,7.9,7.794,7.794,0,0,0,4.489-1.37v1.306h1.3v-8.137h-1.3v.478l-6.93,5.953a6.336,6.336,0,0,1-4.023-6.13A6.524,6.524,0,0,1,875.168,492.022Zm4.216,8.117v3.3a6.353,6.353,0,0,1-4.489,1.784,6.574,6.574,0,0,1-1.352-.144Z" transform="translate(-168.536 -450.263)" fill="#eaeaea"/>
  <path id="Контур_386" data-name="Контур 386" d="M909.477,490.73a7.865,7.865,0,1,0,7.99,7.864A7.754,7.754,0,0,0,909.477,490.73Zm0,14.433a6.57,6.57,0,1,1,6.674-6.568A6.476,6.476,0,0,1,909.477,505.163Z" transform="translate(-187.977 -450.265)" fill="#eaeaea"/>
  <path id="Контур_387" data-name="Контур 387" d="M984.285,490.569a7.865,7.865,0,1,0,7.99,7.864A7.754,7.754,0,0,0,984.285,490.569Zm0,14.433a6.57,6.57,0,1,1,6.674-6.568A6.477,6.477,0,0,1,984.285,505Z" transform="translate(-230.294 -450.174)" fill="#eaeaea"/>
  <path id="Контур_388" data-name="Контур 388" d="M949.815,492.025a6.124,6.124,0,0,1,4.5,1.641l.342.326.83-.968-.294-.293a7.4,7.4,0,0,0-5.38-2,7.786,7.786,0,0,0-8.053,7.864,7.658,7.658,0,0,0,7.78,7.864,7.819,7.819,0,0,0,4.489-1.363v1.3h1.3v-8.1h-1.3v.322L947,504.653a6.3,6.3,0,0,1-3.924-6.059A6.508,6.508,0,0,1,949.815,492.025Zm4.216,7.928v3.434a6.368,6.368,0,0,1-4.489,1.775,6.608,6.608,0,0,1-1.468-.167Z" transform="translate(-210.76 -450.265)" fill="#eaeaea"/>
  <path id="Контур_389" data-name="Контур 389" d="M829.634,492.33h3.172v13.057h-3.172v1.261h7.656v-1.261h-3.172V492.33h3.172v-1.261h-7.656Z" transform="translate(-147.334 -450.459)" fill="#eaeaea"/>
  <path id="Контур_390" data-name="Контур 390" d="M1035.729,490.891a7.865,7.865,0,1,0,7.99,7.864A7.754,7.754,0,0,0,1035.729,490.891Zm0,14.433a6.57,6.57,0,1,1,6.674-6.569A6.476,6.476,0,0,1,1035.729,505.324Z" transform="translate(-259.394 -450.357)" fill="#ddd"/>
  <path id="Контур_391" data-name="Контур 391" d="M1075.1,501.311a4.957,4.957,0,0,0,3.948-5.077c0-3.348-2.327-5.348-6.225-5.348H1067.4v15.741h1.316v-5.046h4.111c.149,0,.294,0,.436-.008l4.375,4.976h1.754l-4.561-5.172Zm-6.388-1.031V496.4l3.41,3.878Zm0-5.835v-2.258h4.153c2.22,0,4.867.7,4.867,4.047,0,2.875-1.956,3.8-3.915,4Z" transform="translate(-281.829 -450.355)" fill="#eaeaea"/>
  <path id="Контур_392" data-name="Контур 392" d="M1144.168,492.022a6.105,6.105,0,0,1,4.5,1.649l.343.328.828-.97-.292-.293a7.378,7.378,0,0,0-5.38-2.011,7.8,7.8,0,0,0-8.053,7.9,7.675,7.675,0,0,0,7.78,7.9,7.794,7.794,0,0,0,4.489-1.37v1.306h1.3v-8.137h-1.3v.478l-6.93,5.953a6.335,6.335,0,0,1-4.023-6.13A6.524,6.524,0,0,1,1144.168,492.022Zm4.216,8.117v3.3a6.353,6.353,0,0,1-4.489,1.784,6.575,6.575,0,0,1-1.353-.144Z" transform="translate(-320.698 -450.263)" fill="#eaeaea"/>
  <path id="Контур_393" data-name="Контур 393" d="M1178.477,490.73a7.865,7.865,0,1,0,7.99,7.864A7.754,7.754,0,0,0,1178.477,490.73Zm0,14.433a6.57,6.57,0,1,1,6.674-6.568A6.476,6.476,0,0,1,1178.477,505.163Z" transform="translate(-340.14 -450.265)" fill="#eaeaea"/>
  <path id="Контур_394" data-name="Контур 394" d="M1253.285,490.569a7.865,7.865,0,1,0,7.99,7.864A7.754,7.754,0,0,0,1253.285,490.569Zm0,14.433a6.57,6.57,0,1,1,6.674-6.568A6.477,6.477,0,0,1,1253.285,505Z" transform="translate(-382.458 -450.174)" fill="#eaeaea"/>
  <path id="Контур_395" data-name="Контур 395" d="M1218.815,492.025a6.124,6.124,0,0,1,4.5,1.641l.342.326.829-.968-.294-.293a7.4,7.4,0,0,0-5.38-2,7.786,7.786,0,0,0-8.053,7.864,7.658,7.658,0,0,0,7.78,7.864,7.819,7.819,0,0,0,4.489-1.363v1.3h1.3v-8.1h-1.3v.322L1216,504.653a6.3,6.3,0,0,1-3.924-6.059A6.508,6.508,0,0,1,1218.815,492.025Zm4.216,7.928v3.434a6.368,6.368,0,0,1-4.489,1.775,6.606,6.606,0,0,1-1.468-.167Z" transform="translate(-362.923 -450.265)" fill="#eaeaea"/>
  <path id="Контур_396" data-name="Контур 396" d="M1098.635,492.33h3.172v13.057h-3.172v1.261h7.656v-1.261h-3.172V492.33h3.172v-1.261h-7.656Z" transform="translate(-299.497 -450.459)" fill="#eaeaea"/>
  <path id="Контур_397" data-name="Контур 397" d="M-43.271,490.891a7.754,7.754,0,0,0-7.99,7.864,7.754,7.754,0,0,0,7.99,7.864,7.754,7.754,0,0,0,7.99-7.864A7.754,7.754,0,0,0-43.271,490.891Zm0,14.433a6.476,6.476,0,0,1-6.674-6.569,6.477,6.477,0,0,1,6.674-6.569,6.477,6.477,0,0,1,6.674,6.569A6.476,6.476,0,0,1-43.271,505.324Z" transform="translate(350.954 -450.357)" fill="#eaeaea"/>
  <path id="Контур_398" data-name="Контур 398" d="M-3.9,501.311a4.957,4.957,0,0,0,3.948-5.077c0-3.348-2.327-5.348-6.225-5.348H-11.6v15.741h1.316v-5.046h4.111c.149,0,.294,0,.436-.008l4.375,4.976H.393l-4.561-5.172Zm-6.388-1.031V496.4l3.41,3.878Zm0-5.835v-2.258H-6.13c2.22,0,4.867.7,4.867,4.047,0,2.875-1.956,3.8-3.915,4Z" transform="translate(328.52 -450.355)" fill="#eaeaea"/>
  <path id="Контур_399" data-name="Контур 399" d="M65.168,492.022a6.1,6.1,0,0,1,4.5,1.649l.343.328.828-.97-.291-.293a7.378,7.378,0,0,0-5.381-2.011,7.8,7.8,0,0,0-8.053,7.9,7.675,7.675,0,0,0,7.78,7.9,7.793,7.793,0,0,0,4.489-1.37v1.306h1.3v-8.137h-1.3v.478l-6.93,5.953a6.336,6.336,0,0,1-4.023-6.13A6.524,6.524,0,0,1,65.168,492.022Zm4.216,8.117v3.3a6.352,6.352,0,0,1-4.489,1.784,6.575,6.575,0,0,1-1.353-.144Z" transform="translate(289.651 -450.263)" fill="#ddd"/>
  <path id="Контур_400" data-name="Контур 400" d="M99.477,490.73a7.865,7.865,0,1,0,7.99,7.864A7.754,7.754,0,0,0,99.477,490.73Zm0,14.433a6.57,6.57,0,1,1,6.674-6.568A6.476,6.476,0,0,1,99.477,505.163Z" transform="translate(270.207 -450.265)" fill="#eaeaea"/>
  <path id="Контур_401" data-name="Контур 401" d="M174.285,490.569a7.865,7.865,0,1,0,7.99,7.864A7.754,7.754,0,0,0,174.285,490.569Zm0,14.433a6.57,6.57,0,1,1,6.674-6.568A6.477,6.477,0,0,1,174.285,505Z" transform="translate(227.892 -450.174)" fill="#eaeaea"/>
  <path id="Контур_402" data-name="Контур 402" d="M139.815,492.025a6.125,6.125,0,0,1,4.5,1.641l.342.326.83-.968-.294-.293a7.4,7.4,0,0,0-5.38-2,7.786,7.786,0,0,0-8.053,7.864,7.658,7.658,0,0,0,7.78,7.864,7.819,7.819,0,0,0,4.489-1.363v1.3h1.3v-8.1h-1.3v.322L137,504.653a6.3,6.3,0,0,1-3.924-6.059A6.508,6.508,0,0,1,139.815,492.025Zm4.216,7.928v3.434a6.368,6.368,0,0,1-4.489,1.775,6.606,6.606,0,0,1-1.468-.167Z" transform="translate(247.427 -450.265)" fill="#eaeaea"/>
  <path id="Контур_403" data-name="Контур 403" d="M19.634,492.33h3.172v13.057H19.634v1.261h7.656v-1.261H24.118V492.33h3.172v-1.261H19.634Z" transform="translate(310.852 -450.459)" fill="#eaeaea"/>
  <path id="Контур_404" data-name="Контур 404" d="M-315.271,490.891a7.754,7.754,0,0,0-7.99,7.864,7.754,7.754,0,0,0,7.99,7.864,7.754,7.754,0,0,0,7.99-7.864A7.754,7.754,0,0,0-315.271,490.891Zm0,14.433a6.476,6.476,0,0,1-6.674-6.569,6.477,6.477,0,0,1,6.674-6.569,6.477,6.477,0,0,1,6.674,6.569A6.476,6.476,0,0,1-315.271,505.324Z" transform="translate(504.814 -450.357)" fill="#eaeaea"/>
  <path id="Контур_405" data-name="Контур 405" d="M-275.9,501.311a4.957,4.957,0,0,0,3.948-5.077c0-3.348-2.327-5.348-6.225-5.348H-283.6v15.741h1.316v-5.046h4.111c.149,0,.294,0,.436-.008l4.375,4.976h1.754l-4.561-5.172Zm-6.388-1.031V496.4l3.41,3.878Zm0-5.835v-2.258h4.153c2.22,0,4.867.7,4.867,4.047,0,2.875-1.956,3.8-3.915,4Z" transform="translate(482.379 -450.355)" fill="#eaeaea"/>
  <path id="Контур_406" data-name="Контур 406" d="M-206.832,492.022a6.1,6.1,0,0,1,4.5,1.649l.343.328.828-.97-.291-.293a7.378,7.378,0,0,0-5.381-2.011,7.8,7.8,0,0,0-8.053,7.9,7.675,7.675,0,0,0,7.78,7.9,7.793,7.793,0,0,0,4.489-1.37v1.306h1.3v-8.137h-1.3v.478l-6.93,5.953a6.336,6.336,0,0,1-4.023-6.13A6.524,6.524,0,0,1-206.832,492.022Zm4.216,8.117v3.3a6.352,6.352,0,0,1-4.489,1.784,6.575,6.575,0,0,1-1.353-.144Z" transform="translate(443.51 -450.263)" fill="#eaeaea"/>
  <path id="Контур_407" data-name="Контур 407" d="M-172.523,490.73a7.754,7.754,0,0,0-7.99,7.864,7.754,7.754,0,0,0,7.99,7.864,7.754,7.754,0,0,0,7.99-7.864A7.754,7.754,0,0,0-172.523,490.73Zm0,14.433a6.476,6.476,0,0,1-6.674-6.568,6.476,6.476,0,0,1,6.674-6.569,6.476,6.476,0,0,1,6.674,6.569A6.476,6.476,0,0,1-172.523,505.163Z" transform="translate(424.067 -450.265)" fill="#eaeaea"/>
  <path id="Контур_408" data-name="Контур 408" d="M-97.715,490.569a7.754,7.754,0,0,0-7.99,7.864,7.754,7.754,0,0,0,7.99,7.864,7.754,7.754,0,0,0,7.99-7.864A7.754,7.754,0,0,0-97.715,490.569Zm0,14.433a6.477,6.477,0,0,1-6.674-6.568,6.477,6.477,0,0,1,6.674-6.569,6.477,6.477,0,0,1,6.674,6.569A6.477,6.477,0,0,1-97.715,505Z" transform="translate(381.751 -450.174)" fill="#eaeaea"/>
  <path id="Контур_409" data-name="Контур 409" d="M-132.185,492.025a6.124,6.124,0,0,1,4.5,1.641l.342.326.83-.968-.294-.293a7.4,7.4,0,0,0-5.38-2,7.786,7.786,0,0,0-8.053,7.864,7.658,7.658,0,0,0,7.78,7.864,7.819,7.819,0,0,0,4.489-1.363v1.3h1.3v-8.1h-1.3v.322L-135,504.653a6.3,6.3,0,0,1-3.924-6.059A6.508,6.508,0,0,1-132.185,492.025Zm4.216,7.928v3.434a6.368,6.368,0,0,1-4.489,1.775,6.606,6.606,0,0,1-1.468-.167Z" transform="translate(401.286 -450.265)" fill="#eaeaea"/>
  <path id="Контур_410" data-name="Контур 410" d="M-252.366,492.33h3.172v13.057h-3.172v1.261h7.656v-1.261h-3.172V492.33h3.172v-1.261h-7.656Z" transform="translate(464.711 -450.459)" fill="#eaeaea"/>
  <path id="Контур_411" data-name="Контур 411" d="M-587.271,490.891a7.754,7.754,0,0,0-7.99,7.864,7.754,7.754,0,0,0,7.99,7.864,7.754,7.754,0,0,0,7.99-7.864A7.754,7.754,0,0,0-587.271,490.891Zm0,14.433a6.476,6.476,0,0,1-6.674-6.569,6.476,6.476,0,0,1,6.674-6.569,6.476,6.476,0,0,1,6.674,6.569A6.476,6.476,0,0,1-587.271,505.324Z" transform="translate(658.674 -450.357)" fill="#eaeaea"/>
  <path id="Контур_412" data-name="Контур 412" d="M-547.9,501.311a4.957,4.957,0,0,0,3.948-5.077c0-3.348-2.327-5.348-6.225-5.348H-555.6v15.741h1.316v-5.046h4.111c.149,0,.294,0,.436-.008l4.375,4.976h1.754l-4.561-5.172Zm-6.388-1.031V496.4l3.41,3.878Zm0-5.835v-2.258h4.153c2.22,0,4.867.7,4.867,4.047,0,2.875-1.956,3.8-3.915,4Z" transform="translate(636.239 -450.355)" fill="#eaeaea"/>
  <path id="Контур_413" data-name="Контур 413" d="M-478.832,492.022a6.1,6.1,0,0,1,4.5,1.649l.343.328.828-.97-.291-.293a7.379,7.379,0,0,0-5.381-2.011,7.8,7.8,0,0,0-8.053,7.9,7.675,7.675,0,0,0,7.78,7.9,7.793,7.793,0,0,0,4.489-1.37v1.306h1.3v-8.137h-1.3v.478l-6.93,5.953a6.336,6.336,0,0,1-4.023-6.13A6.524,6.524,0,0,1-478.832,492.022Zm4.216,8.117v3.3a6.353,6.353,0,0,1-4.489,1.784,6.575,6.575,0,0,1-1.353-.144Z" transform="translate(597.371 -450.263)" fill="#eaeaea"/>
  <path id="Контур_414" data-name="Контур 414" d="M-444.523,490.73a7.754,7.754,0,0,0-7.99,7.864,7.754,7.754,0,0,0,7.99,7.864,7.754,7.754,0,0,0,7.99-7.864A7.754,7.754,0,0,0-444.523,490.73Zm0,14.433a6.476,6.476,0,0,1-6.674-6.568,6.476,6.476,0,0,1,6.674-6.569,6.476,6.476,0,0,1,6.674,6.569A6.476,6.476,0,0,1-444.523,505.163Z" transform="translate(577.927 -450.265)" fill="#eaeaea"/>
  <path id="Контур_415" data-name="Контур 415" d="M-369.715,490.569a7.754,7.754,0,0,0-7.99,7.864,7.754,7.754,0,0,0,7.99,7.864,7.754,7.754,0,0,0,7.99-7.864A7.754,7.754,0,0,0-369.715,490.569Zm0,14.433a6.477,6.477,0,0,1-6.674-6.568,6.477,6.477,0,0,1,6.674-6.569,6.477,6.477,0,0,1,6.674,6.569A6.477,6.477,0,0,1-369.715,505Z" transform="translate(535.612 -450.174)" fill="#eaeaea"/>
  <path id="Контур_416" data-name="Контур 416" d="M-404.185,492.025a6.125,6.125,0,0,1,4.5,1.641l.342.326.83-.968-.294-.293a7.4,7.4,0,0,0-5.38-2,7.786,7.786,0,0,0-8.053,7.864,7.658,7.658,0,0,0,7.78,7.864,7.819,7.819,0,0,0,4.489-1.363v1.3h1.3v-8.1h-1.3v.322L-407,504.653a6.3,6.3,0,0,1-3.924-6.059A6.508,6.508,0,0,1-404.185,492.025Zm4.216,7.928v3.434a6.368,6.368,0,0,1-4.489,1.775,6.606,6.606,0,0,1-1.468-.167Z" transform="translate(555.147 -450.265)" fill="#eaeaea"/>
  <path id="Контур_417" data-name="Контур 417" d="M-524.366,492.33h3.172v13.057h-3.172v1.261h7.656v-1.261h-3.172V492.33h3.172v-1.261h-7.656Z" transform="translate(618.571 -450.459)" fill="#eaeaea"/>
  <path id="Контур_418" data-name="Контур 418" d="M105.729,539.891a7.865,7.865,0,1,0,7.99,7.864A7.754,7.754,0,0,0,105.729,539.891Zm0,14.433a6.57,6.57,0,1,1,6.674-6.568A6.476,6.476,0,0,1,105.729,554.324Z" transform="translate(266.67 -478.075)" fill="#eaeaea"/>
  <path id="Контур_419" data-name="Контур 419" d="M145.1,550.311a4.957,4.957,0,0,0,3.948-5.077c0-3.348-2.327-5.348-6.225-5.348H137.4v15.741h1.316v-5.046h4.111c.149,0,.294,0,.436-.008l4.375,4.976h1.754l-4.561-5.172Zm-6.388-1.031V545.4l3.41,3.878Zm0-5.835v-2.258h4.153c2.22,0,4.867.7,4.867,4.047,0,2.875-1.956,3.8-3.915,4Z" transform="translate(244.236 -478.072)" fill="#eaeaea"/>
  <path id="Контур_420" data-name="Контур 420" d="M214.168,541.022a6.1,6.1,0,0,1,4.5,1.649l.343.328.828-.97-.291-.293a7.378,7.378,0,0,0-5.381-2.011,7.8,7.8,0,0,0-8.053,7.9,7.675,7.675,0,0,0,7.78,7.9,7.793,7.793,0,0,0,4.489-1.369v1.306h1.3v-8.137h-1.3v.478l-6.93,5.953a6.335,6.335,0,0,1-4.023-6.13A6.524,6.524,0,0,1,214.168,541.022Zm4.216,8.117v3.3a6.353,6.353,0,0,1-4.489,1.784,6.579,6.579,0,0,1-1.353-.144Z" transform="translate(205.366 -477.981)" fill="#eaeaea"/>
  <path id="Контур_421" data-name="Контур 421" d="M248.477,539.73a7.865,7.865,0,1,0,7.99,7.864A7.754,7.754,0,0,0,248.477,539.73Zm0,14.433a6.57,6.57,0,1,1,6.674-6.568A6.476,6.476,0,0,1,248.477,554.163Z" transform="translate(185.924 -477.984)" fill="#eaeaea"/>
  <path id="Контур_422" data-name="Контур 422" d="M323.285,539.569a7.865,7.865,0,1,0,7.99,7.864A7.754,7.754,0,0,0,323.285,539.569Zm0,14.433a6.569,6.569,0,1,1,6.674-6.568A6.477,6.477,0,0,1,323.285,554Z" transform="translate(143.609 -477.892)" fill="#eaeaea"/>
  <path id="Контур_423" data-name="Контур 423" d="M288.815,541.025a6.124,6.124,0,0,1,4.5,1.641l.342.326.83-.968-.294-.293a7.4,7.4,0,0,0-5.38-2,7.786,7.786,0,0,0-8.053,7.864,7.658,7.658,0,0,0,7.78,7.864,7.819,7.819,0,0,0,4.489-1.363v1.3h1.3v-8.1h-1.3v.322L286,553.653a6.3,6.3,0,0,1-3.924-6.059A6.508,6.508,0,0,1,288.815,541.025Zm4.216,7.928v3.434a6.368,6.368,0,0,1-4.489,1.775,6.6,6.6,0,0,1-1.468-.167Z" transform="translate(163.143 -477.984)" fill="#eaeaea"/>
  <path id="Контур_424" data-name="Контур 424" d="M168.634,541.33h3.172v13.057h-3.172v1.261h7.656v-1.261h-3.172V541.33h3.172v-1.261h-7.656Z" transform="translate(226.569 -478.175)" fill="#eaeaea"/>
  <path id="Контур_425" data-name="Контур 425" d="M374.729,539.891a7.865,7.865,0,1,0,7.99,7.864A7.754,7.754,0,0,0,374.729,539.891Zm0,14.433a6.57,6.57,0,1,1,6.674-6.568A6.476,6.476,0,0,1,374.729,554.324Z" transform="translate(114.507 -478.075)" fill="#eaeaea"/>
  <path id="Контур_426" data-name="Контур 426" d="M414.1,550.311a4.957,4.957,0,0,0,3.948-5.077c0-3.348-2.327-5.348-6.225-5.348H406.4v15.741h1.316v-5.046h4.111c.149,0,.294,0,.436-.008l4.375,4.976h1.754l-4.561-5.172Zm-6.388-1.031V545.4l3.41,3.878Zm0-5.835v-2.258h4.153c2.22,0,4.867.7,4.867,4.047,0,2.875-1.956,3.8-3.915,4Z" transform="translate(92.073 -478.072)" fill="#eaeaea"/>
  <path id="Контур_427" data-name="Контур 427" d="M483.168,541.022a6.1,6.1,0,0,1,4.5,1.649l.343.328.828-.97-.291-.293a7.378,7.378,0,0,0-5.381-2.011,7.8,7.8,0,0,0-8.053,7.9,7.675,7.675,0,0,0,7.78,7.9,7.793,7.793,0,0,0,4.489-1.369v1.306h1.3v-8.137h-1.3v.478l-6.93,5.953a6.335,6.335,0,0,1-4.023-6.13A6.524,6.524,0,0,1,483.168,541.022Zm4.216,8.117v3.3a6.353,6.353,0,0,1-4.489,1.784,6.579,6.579,0,0,1-1.353-.144Z" transform="translate(53.203 -477.981)" fill="#eaeaea"/>
  <path id="Контур_428" data-name="Контур 428" d="M517.477,539.73a7.865,7.865,0,1,0,7.99,7.864A7.754,7.754,0,0,0,517.477,539.73Zm0,14.433a6.57,6.57,0,1,1,6.674-6.568A6.476,6.476,0,0,1,517.477,554.163Z" transform="translate(33.761 -477.984)" fill="#eaeaea"/>
  <path id="Контур_429" data-name="Контур 429" d="M592.285,539.569a7.865,7.865,0,1,0,7.99,7.864A7.754,7.754,0,0,0,592.285,539.569Zm0,14.433a6.569,6.569,0,1,1,6.674-6.568A6.477,6.477,0,0,1,592.285,554Z" transform="translate(-8.555 -477.892)" fill="#eaeaea"/>
  <path id="Контур_430" data-name="Контур 430" d="M557.815,541.025a6.124,6.124,0,0,1,4.5,1.641l.342.326.83-.968-.294-.293a7.4,7.4,0,0,0-5.38-2,7.786,7.786,0,0,0-8.053,7.864,7.658,7.658,0,0,0,7.78,7.864,7.819,7.819,0,0,0,4.489-1.363v1.3h1.3v-8.1h-1.3v.322L555,553.653a6.3,6.3,0,0,1-3.924-6.059A6.508,6.508,0,0,1,557.815,541.025Zm4.216,7.928v3.434a6.367,6.367,0,0,1-4.489,1.775,6.605,6.605,0,0,1-1.468-.167Z" transform="translate(10.98 -477.984)" fill="#eaeaea"/>
  <path id="Контур_431" data-name="Контур 431" d="M437.635,541.33h3.172v13.057h-3.172v1.261h7.656v-1.261h-3.172V541.33h3.172v-1.261h-7.656Z" transform="translate(74.405 -478.175)" fill="#eaeaea"/>
  <path id="Контур_432" data-name="Контур 432" d="M912.729,539.891a7.865,7.865,0,1,0,7.99,7.864A7.754,7.754,0,0,0,912.729,539.891Zm0,14.433a6.57,6.57,0,1,1,6.674-6.568A6.476,6.476,0,0,1,912.729,554.324Z" transform="translate(-189.818 -478.075)" fill="#eaeaea"/>
  <path id="Контур_433" data-name="Контур 433" d="M952.1,550.311a4.957,4.957,0,0,0,3.948-5.077c0-3.348-2.327-5.348-6.225-5.348H944.4v15.741h1.316v-5.046h4.111c.149,0,.294,0,.435-.008l4.375,4.976h1.754l-4.561-5.172Zm-6.388-1.031V545.4l3.41,3.878Zm0-5.835v-2.258h4.153c2.22,0,4.867.7,4.867,4.047,0,2.875-1.956,3.8-3.915,4Z" transform="translate(-212.254 -478.072)" fill="#eaeaea"/>
  <path id="Контур_434" data-name="Контур 434" d="M1021.168,541.022a6.1,6.1,0,0,1,4.5,1.649l.343.328.828-.97-.291-.293a7.378,7.378,0,0,0-5.381-2.011,7.8,7.8,0,0,0-8.053,7.9,7.675,7.675,0,0,0,7.78,7.9,7.794,7.794,0,0,0,4.489-1.369v1.306h1.3v-8.137h-1.3v.478l-6.93,5.953a6.335,6.335,0,0,1-4.023-6.13A6.524,6.524,0,0,1,1021.168,541.022Zm4.216,8.117v3.3a6.353,6.353,0,0,1-4.489,1.784,6.579,6.579,0,0,1-1.352-.144Z" transform="translate(-251.123 -477.981)" fill="#eaeaea"/>
  <path id="Контур_435" data-name="Контур 435" d="M1055.477,539.73a7.865,7.865,0,1,0,7.99,7.864A7.754,7.754,0,0,0,1055.477,539.73Zm0,14.433a6.57,6.57,0,1,1,6.674-6.568A6.476,6.476,0,0,1,1055.477,554.163Z" transform="translate(-270.565 -477.984)" fill="#eaeaea"/>
  <path id="Контур_436" data-name="Контур 436" d="M1130.285,539.569a7.865,7.865,0,1,0,7.99,7.864A7.754,7.754,0,0,0,1130.285,539.569Zm0,14.433a6.569,6.569,0,1,1,6.674-6.568A6.476,6.476,0,0,1,1130.285,554Z" transform="translate(-312.882 -477.892)" fill="#eaeaea"/>
  <path id="Контур_437" data-name="Контур 437" d="M1095.815,541.025a6.124,6.124,0,0,1,4.5,1.641l.342.326.829-.968-.294-.293a7.4,7.4,0,0,0-5.38-2,7.786,7.786,0,0,0-8.053,7.864,7.658,7.658,0,0,0,7.78,7.864,7.82,7.82,0,0,0,4.489-1.363v1.3h1.3v-8.1h-1.3v.322L1093,553.653a6.3,6.3,0,0,1-3.924-6.059A6.508,6.508,0,0,1,1095.815,541.025Zm4.216,7.928v3.434a6.368,6.368,0,0,1-4.489,1.775,6.6,6.6,0,0,1-1.468-.167Z" transform="translate(-293.347 -477.984)" fill="#eaeaea"/>
  <path id="Контур_438" data-name="Контур 438" d="M975.635,541.33h3.172v13.057h-3.172v1.261h7.656v-1.261h-3.172V541.33h3.172v-1.261h-7.656Z" transform="translate(-229.922 -478.175)" fill="#eaeaea"/>
  <path id="Контур_439" data-name="Контур 439" d="M-438.271,539.891a7.754,7.754,0,0,0-7.99,7.864,7.754,7.754,0,0,0,7.99,7.864,7.754,7.754,0,0,0,7.99-7.864A7.754,7.754,0,0,0-438.271,539.891Zm0,14.433a6.476,6.476,0,0,1-6.674-6.568,6.477,6.477,0,0,1,6.674-6.569,6.477,6.477,0,0,1,6.674,6.569A6.476,6.476,0,0,1-438.271,554.324Z" transform="translate(574.391 -478.075)" fill="#eaeaea"/>
  <path id="Контур_440" data-name="Контур 440" d="M-398.9,550.311a4.957,4.957,0,0,0,3.948-5.077c0-3.348-2.327-5.348-6.225-5.348H-406.6v15.741h1.316v-5.046h4.111c.149,0,.294,0,.436-.008l4.375,4.976h1.754l-4.561-5.172Zm-6.388-1.031V545.4l3.41,3.878Zm0-5.835v-2.258h4.153c2.22,0,4.867.7,4.867,4.047,0,2.875-1.956,3.8-3.915,4Z" transform="translate(551.955 -478.072)" fill="#eaeaea"/>
  <path id="Контур_441" data-name="Контур 441" d="M-329.832,541.022a6.1,6.1,0,0,1,4.5,1.649l.343.328.828-.97-.291-.293a7.378,7.378,0,0,0-5.381-2.011,7.8,7.8,0,0,0-8.053,7.9,7.675,7.675,0,0,0,7.78,7.9,7.793,7.793,0,0,0,4.489-1.369v1.306h1.3v-8.137h-1.3v.478l-6.93,5.953a6.335,6.335,0,0,1-4.023-6.13A6.524,6.524,0,0,1-329.832,541.022Zm4.216,8.117v3.3a6.353,6.353,0,0,1-4.489,1.784,6.578,6.578,0,0,1-1.353-.144Z" transform="translate(513.086 -477.981)" fill="#eaeaea"/>
  <path id="Контур_442" data-name="Контур 442" d="M-295.523,539.73a7.754,7.754,0,0,0-7.99,7.864,7.754,7.754,0,0,0,7.99,7.864,7.754,7.754,0,0,0,7.99-7.864A7.754,7.754,0,0,0-295.523,539.73Zm0,14.433a6.476,6.476,0,0,1-6.674-6.568,6.477,6.477,0,0,1,6.674-6.569,6.476,6.476,0,0,1,6.674,6.569A6.476,6.476,0,0,1-295.523,554.163Z" transform="translate(493.644 -477.984)" fill="#eaeaea"/>
  <path id="Контур_443" data-name="Контур 443" d="M-220.715,539.569a7.754,7.754,0,0,0-7.99,7.864,7.754,7.754,0,0,0,7.99,7.864,7.754,7.754,0,0,0,7.99-7.864A7.754,7.754,0,0,0-220.715,539.569Zm0,14.433a6.477,6.477,0,0,1-6.674-6.568,6.477,6.477,0,0,1,6.674-6.569,6.477,6.477,0,0,1,6.674,6.569A6.477,6.477,0,0,1-220.715,554Z" transform="translate(451.328 -477.892)" fill="#eaeaea"/>
  <path id="Контур_444" data-name="Контур 444" d="M-255.185,541.025a6.124,6.124,0,0,1,4.5,1.641l.342.326.83-.968-.294-.293a7.4,7.4,0,0,0-5.38-2,7.786,7.786,0,0,0-8.053,7.864,7.658,7.658,0,0,0,7.78,7.864,7.819,7.819,0,0,0,4.489-1.363v1.3h1.3v-8.1h-1.3v.322L-258,553.653a6.3,6.3,0,0,1-3.924-6.059A6.508,6.508,0,0,1-255.185,541.025Zm4.216,7.928v3.434a6.367,6.367,0,0,1-4.489,1.775,6.6,6.6,0,0,1-1.468-.167Z" transform="translate(470.862 -477.984)" fill="#eaeaea"/>
  <path id="Контур_445" data-name="Контур 445" d="M-375.365,541.33h3.172v13.057h-3.172v1.261h7.656v-1.261h-3.172V541.33h3.172v-1.261h-7.656Z" transform="translate(534.288 -478.175)" fill="#ddd"/>
  <path id="Контур_446" data-name="Контур 446" d="M-710.271,539.891a7.754,7.754,0,0,0-7.99,7.864,7.754,7.754,0,0,0,7.99,7.864,7.754,7.754,0,0,0,7.99-7.864A7.754,7.754,0,0,0-710.271,539.891Zm0,14.433a6.476,6.476,0,0,1-6.674-6.568,6.477,6.477,0,0,1,6.674-6.569,6.476,6.476,0,0,1,6.674,6.569A6.476,6.476,0,0,1-710.271,554.324Z" transform="translate(728.25 -478.075)" fill="#eaeaea"/>
  <path id="Контур_447" data-name="Контур 447" d="M-670.9,550.311a4.957,4.957,0,0,0,3.948-5.077c0-3.348-2.327-5.348-6.225-5.348H-678.6v15.741h1.316v-5.046h4.111c.149,0,.294,0,.436-.008l4.375,4.976h1.754l-4.561-5.172Zm-6.388-1.031V545.4l3.41,3.878Zm0-5.835v-2.258h4.153c2.22,0,4.867.7,4.867,4.047,0,2.875-1.956,3.8-3.915,4Z" transform="translate(705.816 -478.072)" fill="#eaeaea"/>
  <path id="Контур_448" data-name="Контур 448" d="M-601.832,541.022a6.1,6.1,0,0,1,4.5,1.649l.343.328.828-.97-.291-.293a7.379,7.379,0,0,0-5.381-2.011,7.8,7.8,0,0,0-8.053,7.9,7.675,7.675,0,0,0,7.78,7.9,7.793,7.793,0,0,0,4.489-1.369v1.306h1.3v-8.137h-1.3v.478l-6.93,5.953a6.335,6.335,0,0,1-4.023-6.13A6.524,6.524,0,0,1-601.832,541.022Zm4.216,8.117v3.3a6.353,6.353,0,0,1-4.489,1.784,6.579,6.579,0,0,1-1.352-.144Z" transform="translate(666.945 -477.981)" fill="#eaeaea"/>
  <path id="Контур_449" data-name="Контур 449" d="M-567.523,539.73a7.754,7.754,0,0,0-7.99,7.864,7.754,7.754,0,0,0,7.99,7.864,7.754,7.754,0,0,0,7.99-7.864A7.754,7.754,0,0,0-567.523,539.73Zm0,14.433a6.476,6.476,0,0,1-6.674-6.568,6.477,6.477,0,0,1,6.674-6.569,6.477,6.477,0,0,1,6.674,6.569A6.476,6.476,0,0,1-567.523,554.163Z" transform="translate(647.503 -477.984)" fill="#eaeaea"/>
  <path id="Контур_450" data-name="Контур 450" d="M-492.715,539.569a7.754,7.754,0,0,0-7.99,7.864,7.754,7.754,0,0,0,7.99,7.864,7.754,7.754,0,0,0,7.99-7.864A7.754,7.754,0,0,0-492.715,539.569Zm0,14.433a6.477,6.477,0,0,1-6.674-6.568,6.477,6.477,0,0,1,6.674-6.569,6.477,6.477,0,0,1,6.674,6.569A6.477,6.477,0,0,1-492.715,554Z" transform="translate(605.189 -477.892)" fill="#eaeaea"/>
  <path id="Контур_451" data-name="Контур 451" d="M-527.185,541.025a6.124,6.124,0,0,1,4.5,1.641l.342.326.83-.968-.294-.293a7.4,7.4,0,0,0-5.38-2,7.786,7.786,0,0,0-8.053,7.864,7.658,7.658,0,0,0,7.78,7.864,7.819,7.819,0,0,0,4.489-1.363v1.3h1.3v-8.1h-1.3v.322L-530,553.653a6.3,6.3,0,0,1-3.924-6.059A6.508,6.508,0,0,1-527.185,541.025Zm4.216,7.928v3.434a6.367,6.367,0,0,1-4.489,1.775,6.6,6.6,0,0,1-1.468-.167Z" transform="translate(624.722 -477.984)" fill="#eaeaea"/>
  <path id="Контур_452" data-name="Контур 452" d="M-647.366,541.33h3.172v13.057h-3.172v1.261h7.656v-1.261h-3.172V541.33h3.172v-1.261h-7.656Z" transform="translate(688.149 -478.175)" fill="#eaeaea"/>
  <path id="Контур_453" data-name="Контур 453" d="M1304.729,490.891a7.865,7.865,0,1,0,7.99,7.864A7.754,7.754,0,0,0,1304.729,490.891Zm0,14.433a6.57,6.57,0,1,1,6.674-6.569A6.476,6.476,0,0,1,1304.729,505.324Z" transform="translate(-411.557 -450.357)" fill="#eaeaea"/>
  <path id="Контур_454" data-name="Контур 454" d="M1344.1,501.311a4.957,4.957,0,0,0,3.948-5.077c0-3.348-2.327-5.348-6.225-5.348H1336.4v15.741h1.316v-5.046h4.111c.149,0,.294,0,.436-.008l4.375,4.976h1.754l-4.562-5.172Zm-6.388-1.031V496.4l3.41,3.878Zm0-5.835v-2.258h4.153c2.22,0,4.867.7,4.867,4.047,0,2.875-1.956,3.8-3.915,4Z" transform="translate(-433.992 -450.355)" fill="#eaeaea"/>
  <path id="Контур_455" data-name="Контур 455" d="M1413.167,492.022a6.1,6.1,0,0,1,4.5,1.649l.343.328.828-.97-.291-.293a7.378,7.378,0,0,0-5.381-2.011,7.8,7.8,0,0,0-8.052,7.9,7.675,7.675,0,0,0,7.78,7.9,7.793,7.793,0,0,0,4.489-1.37v1.306h1.295v-8.137h-1.295v.478l-6.93,5.953a6.336,6.336,0,0,1-4.023-6.13A6.524,6.524,0,0,1,1413.167,492.022Zm4.216,8.117v3.3a6.353,6.353,0,0,1-4.489,1.784,6.575,6.575,0,0,1-1.353-.144Z" transform="translate(-472.861 -450.263)" fill="#eaeaea"/>
  <path id="Контур_456" data-name="Контур 456" d="M1447.477,490.73a7.865,7.865,0,1,0,7.99,7.864A7.754,7.754,0,0,0,1447.477,490.73Zm0,14.433a6.57,6.57,0,1,1,6.674-6.568A6.476,6.476,0,0,1,1447.477,505.163Z" transform="translate(-492.305 -450.265)" fill="#eaeaea"/>
  <path id="Контур_457" data-name="Контур 457" d="M1522.285,490.569a7.865,7.865,0,1,0,7.99,7.864A7.754,7.754,0,0,0,1522.285,490.569Zm0,14.433a6.57,6.57,0,1,1,6.674-6.568A6.477,6.477,0,0,1,1522.285,505Z" transform="translate(-534.62 -450.174)" fill="#eaeaea"/>
  <path id="Контур_458" data-name="Контур 458" d="M1487.815,492.025a6.124,6.124,0,0,1,4.5,1.641l.342.326.83-.968-.294-.293a7.4,7.4,0,0,0-5.38-2,7.786,7.786,0,0,0-8.053,7.864,7.658,7.658,0,0,0,7.78,7.864,7.819,7.819,0,0,0,4.489-1.363v1.3h1.3v-8.1h-1.3v.322L1485,504.653a6.3,6.3,0,0,1-3.924-6.059A6.508,6.508,0,0,1,1487.815,492.025Zm4.216,7.928v3.434a6.367,6.367,0,0,1-4.489,1.775,6.606,6.606,0,0,1-1.468-.167Z" transform="translate(-515.087 -450.265)" fill="#eaeaea"/>
  <path id="Контур_459" data-name="Контур 459" d="M1367.635,492.33h3.172v13.057h-3.172v1.261h7.656v-1.261h-3.172V492.33h3.172v-1.261h-7.656Z" transform="translate(-451.66 -450.459)" fill="#eaeaea"/>
  <path id="Контур_460" data-name="Контур 460" d="M1573.729,490.891a7.865,7.865,0,1,0,7.99,7.864A7.754,7.754,0,0,0,1573.729,490.891Zm0,14.433a6.57,6.57,0,1,1,6.674-6.569A6.476,6.476,0,0,1,1573.729,505.324Z" transform="translate(-563.721 -450.357)" fill="#eaeaea"/>
  <path id="Контур_461" data-name="Контур 461" d="M1613.1,501.311a4.957,4.957,0,0,0,3.948-5.077c0-3.348-2.327-5.348-6.225-5.348H1605.4v15.741h1.316v-5.046h4.111c.149,0,.294,0,.436-.008l4.375,4.976h1.754l-4.561-5.172Zm-6.388-1.031V496.4l3.41,3.878Zm0-5.835v-2.258h4.153c2.22,0,4.867.7,4.867,4.047,0,2.875-1.956,3.8-3.915,4Z" transform="translate(-586.156 -450.355)" fill="#eaeaea"/>
  <path id="Контур_462" data-name="Контур 462" d="M1682.168,492.022a6.1,6.1,0,0,1,4.5,1.649l.343.328.828-.97-.292-.293a7.378,7.378,0,0,0-5.38-2.011,7.8,7.8,0,0,0-8.053,7.9,7.675,7.675,0,0,0,7.78,7.9,7.794,7.794,0,0,0,4.489-1.37v1.306h1.3v-8.137h-1.3v.478l-6.93,5.953a6.335,6.335,0,0,1-4.023-6.13A6.524,6.524,0,0,1,1682.168,492.022Zm4.216,8.117v3.3a6.353,6.353,0,0,1-4.489,1.784,6.575,6.575,0,0,1-1.353-.144Z" transform="translate(-625.024 -450.263)" fill="#eaeaea"/>
  <path id="Контур_463" data-name="Контур 463" d="M1716.477,490.73a7.865,7.865,0,1,0,7.99,7.864A7.754,7.754,0,0,0,1716.477,490.73Zm0,14.433a6.57,6.57,0,1,1,6.674-6.568A6.476,6.476,0,0,1,1716.477,505.163Z" transform="translate(-644.468 -450.265)" fill="#eaeaea"/>
  <path id="Контур_466" data-name="Контур 466" d="M1636.635,492.33h3.172v13.057h-3.172v1.261h7.656v-1.261h-3.172V492.33h3.172v-1.261h-7.656Z" transform="translate(-603.823 -450.459)" fill="#eaeaea"/>
  <path id="Контур_467" data-name="Контур 467" d="M1450.729,539.891a7.865,7.865,0,1,0,7.99,7.864A7.754,7.754,0,0,0,1450.729,539.891Zm0,14.433a6.57,6.57,0,1,1,6.674-6.568A6.476,6.476,0,0,1,1450.729,554.324Z" transform="translate(-494.143 -478.075)" fill="#eaeaea"/>
  <path id="Контур_468" data-name="Контур 468" d="M1490.1,550.311a4.957,4.957,0,0,0,3.948-5.077c0-3.348-2.327-5.348-6.225-5.348H1482.4v15.741h1.316v-5.046h4.111c.149,0,.294,0,.436-.008l4.375,4.976h1.754l-4.561-5.172Zm-6.388-1.031V545.4l3.41,3.878Zm0-5.835v-2.258h4.153c2.22,0,4.867.7,4.867,4.047,0,2.875-1.956,3.8-3.915,4Z" transform="translate(-516.579 -478.072)" fill="#eaeaea"/>
  <path id="Контур_469" data-name="Контур 469" d="M1559.168,541.022a6.1,6.1,0,0,1,4.5,1.649l.343.328.828-.97-.292-.293a7.378,7.378,0,0,0-5.38-2.011,7.8,7.8,0,0,0-8.053,7.9,7.675,7.675,0,0,0,7.78,7.9,7.793,7.793,0,0,0,4.489-1.369v1.306h1.3v-8.137h-1.3v.478l-6.93,5.953a6.335,6.335,0,0,1-4.023-6.13A6.524,6.524,0,0,1,1559.168,541.022Zm4.216,8.117v3.3a6.353,6.353,0,0,1-4.489,1.784,6.579,6.579,0,0,1-1.353-.144Z" transform="translate(-555.448 -477.981)" fill="#eaeaea"/>
  <path id="Контур_470" data-name="Контур 470" d="M1593.477,539.73a7.865,7.865,0,1,0,7.99,7.864A7.754,7.754,0,0,0,1593.477,539.73Zm0,14.433a6.57,6.57,0,1,1,6.674-6.568A6.477,6.477,0,0,1,1593.477,554.163Z" transform="translate(-574.891 -477.984)" fill="#eaeaea"/>
  <path id="Контур_471" data-name="Контур 471" d="M1668.285,539.569a7.865,7.865,0,1,0,7.99,7.864A7.754,7.754,0,0,0,1668.285,539.569Zm0,14.433a6.569,6.569,0,1,1,6.674-6.568A6.477,6.477,0,0,1,1668.285,554Z" transform="translate(-617.206 -477.892)" fill="#eaeaea"/>
  <path id="Контур_472" data-name="Контур 472" d="M1633.815,541.025a6.125,6.125,0,0,1,4.5,1.641l.342.326.829-.968-.294-.293a7.4,7.4,0,0,0-5.38-2,7.786,7.786,0,0,0-8.053,7.864,7.658,7.658,0,0,0,7.78,7.864,7.82,7.82,0,0,0,4.489-1.363v1.3h1.3v-8.1h-1.3v.322L1631,553.653a6.3,6.3,0,0,1-3.924-6.059A6.508,6.508,0,0,1,1633.815,541.025Zm4.216,7.928v3.434a6.368,6.368,0,0,1-4.489,1.775,6.607,6.607,0,0,1-1.468-.167Z" transform="translate(-597.673 -477.984)" fill="#eaeaea"/>
  <path id="Контур_473" data-name="Контур 473" d="M1513.635,541.33h3.172v13.057h-3.172v1.261h7.656v-1.261h-3.172V541.33h3.172v-1.261h-7.656Z" transform="translate(-534.247 -478.175)" fill="#eaeaea"/>
</svg>
